<svg id="Layer_1" data-name="Layer 1" xmlns="http://www.w3.org/2000/svg" xmlns:xlink="http://www.w3.org/1999/xlink" viewBox="0 0 792 1224"><defs><style>.cls-1{fill:none;}.cls-2{clip-path:url(#clip-path);}.cls-3{fill:#231f20;}</style><clipPath id="clip-path"><rect class="cls-1" width="792" height="1224"/></clipPath></defs><g class="cls-2"><path class="cls-3" d="M182.6,232.11q0,9.4-7,14.3t-17.1,4.9q-10,0-16.5-2.4t-6.45-5.3v-11.7c0-1.4.54-2.1,1.6-2.1.87,0,1.47.63,1.8,1.9q2.61,7.69,6.75,11.45t11.65,3.75q7.5,0,12.15-3.4a11,11,0,0,0,4.65-9.4q0-6.6-7.4-11.1-3.3-2-7.3-3.9c-2.66-1.27-5.33-2.58-8-4a56,56,0,0,1-7.3-4.45q-7.4-5.4-7.4-13.65a15.63,15.63,0,0,1,6.35-13.1A24,24,0,0,1,158,179.11a43.57,43.57,0,0,1,14.6,2.15c4,1.43,6,3,6,4.75v10.1c0,1.33-.48,2-1.45,2s-1.68-.67-2.15-2q-2.1-6.41-5.5-9.5t-10.15-3.1q-6.75,0-10.65,3.2a9.88,9.88,0,0,0-3.9,7.95,10.6,10.6,0,0,0,3.9,8.2,40.6,40.6,0,0,0,9.45,6.1q5.55,2.65,11.1,5.5a31.23,31.23,0,0,1,9.45,7.35A15.27,15.27,0,0,1,182.6,232.11Z"/><path class="cls-3" d="M218.05,199.11q11.46,0,18.3,7.2t6.85,18.95q0,11.75-6.8,18.9T218,251.31q-11.64,0-18.5-7.2t-6.85-18.8q0-11.59,7-18.9T218.05,199.11Zm13.15,12.2a14,14,0,0,0-5-6.05A14.27,14.27,0,0,0,218,203q-8.3,0-12.4,5.5t-4.1,14.4a39.35,39.35,0,0,0,3.2,16.3,14.19,14.19,0,0,0,5.05,5.95,14,14,0,0,0,7.95,2.25q8.51,0,12.55-5.5t4.05-14.6A38.64,38.64,0,0,0,231.2,211.31Z"/><path class="cls-3" d="M265,199.11c1.07,0,1.6.77,1.6,2.3v5.1c0,.33.12.5.35.5s.55-.2.95-.6a18.43,18.43,0,0,1,15.15-7.3q9.36,0,14.35,4.95t5,14.25v25.3a3.35,3.35,0,0,0,1.45,2.85,6.93,6.93,0,0,0,3.45,1.25l2.7.2a1.22,1.22,0,0,1,1.2,1.4c0,.87-.5,1.3-1.5,1.3l-10.7-.4-9.1.4c-1,0-1.5-.43-1.5-1.3a1.22,1.22,0,0,1,1.2-1.4l1.3-.2q3.71-.6,3.7-4.1v-26.7q0-6.19-3.5-9.6t-9.65-3.4A13.38,13.38,0,0,0,271,209q-4.35,5.06-4.35,9.95v24.7c0,2.4,1.34,3.77,4,4.1l1.7.2a1.22,1.22,0,0,1,1.2,1.4c0,.87-.5,1.3-1.5,1.3l-9.5-.4-10.8.4c-1,0-1.5-.43-1.5-1.3a1.22,1.22,0,0,1,1.2-1.4l2.8-.2a6,6,0,0,0,3.3-1.25,3.46,3.46,0,0,0,1.3-2.85V207a3.56,3.56,0,0,0-.85-2.75,4.09,4.09,0,0,0-2.75-.75h-3.4a1.15,1.15,0,0,1-1.3-1.3,1.37,1.37,0,0,1,1.3-1.5l13-1.6Z"/><path class="cls-3" d="M365.1,206.11h-8.3c-.4,0-.63.1-.7.3s0,.43.3.7a16,16,0,0,1,3.1,10.1,16.35,16.35,0,0,1-5.75,13.1,21.34,21.34,0,0,1-14.35,4.9,24.6,24.6,0,0,1-7.15-.75,4.22,4.22,0,0,0-3.45-.05,6.31,6.31,0,0,0-3.6,5.8,4.8,4.8,0,0,0,2.1,4,7.46,7.46,0,0,0,4.5,1.55h14.5q9.79,0,14.75,4.1a13.77,13.77,0,0,1,4.95,11.2,15.79,15.79,0,0,1-7.15,13.75q-7.16,5-17.65,4.95t-17-4q-6.49-4-6.5-11.3a11.18,11.18,0,0,1,3.1-8.1,16.78,16.78,0,0,1,6.7-4.4,11.94,11.94,0,0,1-5.6-3.45,9.14,9.14,0,0,1-2.7-6.65q0-6.3,6.4-9.7a.58.58,0,0,0,.3-.5,1.24,1.24,0,0,0-.3-.7,16.91,16.91,0,0,1-6.2-13.6q0-8.4,5.65-13.35a20.56,20.56,0,0,1,14.05-4.95,29.17,29.17,0,0,1,7.15,1,26.85,26.85,0,0,0,5.35,1H366c.8,0,1.13.4,1,1.2l-.5,2.6A1.28,1.28,0,0,1,365.1,206.11Zm-23.9,70q7.5,0,12.45-3.6t5-8.8c0-3.47-1.06-6.07-3.2-7.8s-5.16-2.6-9.1-2.6h-10q-5.51,0-8.5,3a11,11,0,0,0-3,8.1,10.07,10.07,0,0,0,4.45,8.4Q333.71,276.11,341.2,276.11Zm-1.8-45q5.81,0,8.9-3.4t3.1-9.4a17.65,17.65,0,0,0-3.25-10.55,10.4,10.4,0,0,0-8.95-4.55q-5.7,0-8.7,3.45t-3,9.45a18.29,18.29,0,0,0,3.05,10.5A10,10,0,0,0,339.4,231.11Z"/><path class="cls-3" d="M408.3,237.31a12.15,12.15,0,0,1-5.05,10.15,19.69,19.69,0,0,1-12.3,3.85,36.62,36.62,0,0,1-12.05-1.7q-4.8-1.7-4.8-3.8v-8.7q0-1.8,1.35-1.8c.9,0,1.52.6,1.85,1.8q3.1,10.3,13,10.3a11.71,11.71,0,0,0,7.4-2.25,6.88,6.88,0,0,0,2.9-5.65,7.63,7.63,0,0,0-2.7-5.85,26.16,26.16,0,0,0-6.55-4.25c-2.57-1.2-5.13-2.47-7.7-3.8a21.6,21.6,0,0,1-6.55-5.15,10.82,10.82,0,0,1-2.7-7.25,12.71,12.71,0,0,1,4.7-10.1q4.69-4,12.5-4a24.91,24.91,0,0,1,9.5,1.75q4.31,1.75,4.3,3.75v7.7c0,1.2-.47,1.8-1.4,1.8s-1.53-.6-1.8-1.8q-2.7-9.3-11.3-9.3a11,11,0,0,0-6.6,2,6.1,6.1,0,0,0-2.7,5.2,7.59,7.59,0,0,0,2.75,5.75,26.54,26.54,0,0,0,6.7,4.35q3.94,1.85,7.85,3.9a21.43,21.43,0,0,1,6.65,5.4A11.88,11.88,0,0,1,408.3,237.31Z"/><path class="cls-3" d="M454.1,206.31v37.3a3.6,3.6,0,0,0,1.3,2.9,5.42,5.42,0,0,0,3.3,1.2l3.6.2a1.22,1.22,0,0,1,1.2,1.4c0,.87-.5,1.3-1.5,1.3l-11.6-.4-9.5.4c-1,0-1.5-.43-1.5-1.3a1.22,1.22,0,0,1,1.2-1.4l1.7-.2q4-.5,4-4.1v-37.3c0-.73-.4-1.1-1.2-1.1H439c-.8,0-1.2-.43-1.2-1.3v-.8q0-1,1.2-1.2l5.6-1.4c1.13-.27,1.7-.87,1.7-1.8v-.4q0-11.9,6.05-20a19.34,19.34,0,0,1,16.35-8.1,17.36,17.36,0,0,1,6.4,1q3.9,1.39,3.9,3.6v6.5a1.8,1.8,0,0,1-.45,1.15,1.32,1.32,0,0,1-1.05.55,2.29,2.29,0,0,1-2.1-1.7,9.44,9.44,0,0,0-3.85-4.65A11,11,0,0,0,465.6,175a9.63,9.63,0,0,0-8.6,4.4q-2.89,4.4-2.9,12.5v7.2c0,.73.33,1.1,1,1.1h13c.87,0,1.23.4,1.1,1.2l-.4,2.5c-.13.87-.53,1.3-1.2,1.3H455C454.4,205.21,454.1,205.58,454.1,206.31Z"/><path class="cls-3" d="M486.8,199.11c1.07,0,1.6.77,1.6,2.3v5.4c0,.33.13.5.4.5s.57-.2.9-.6a22.23,22.23,0,0,1,6.35-5.25,14.73,14.73,0,0,1,7.2-2.35,13.13,13.13,0,0,1,4.85.7c1.13.47,1.7,1,1.7,1.6v7.7c0,1-.47,1.5-1.4,1.5q-.79,0-2.1-1.5a9,9,0,0,0-7.25-3.4c-3,0-5.48,1.4-7.55,4.2s-3.1,6.83-3.1,12.1v21.6q0,3.6,5.3,4l4.1.3a1.22,1.22,0,0,1,1.2,1.4c0,.87-.5,1.3-1.5,1.3l-13.2-.4-10.8.4c-1,0-1.5-.43-1.5-1.3a1.22,1.22,0,0,1,1.2-1.4l2.8-.2a6.08,6.08,0,0,0,3.3-1.25,3.46,3.46,0,0,0,1.3-2.85V207a3.56,3.56,0,0,0-.85-2.75,4.11,4.11,0,0,0-2.75-.75h-3.4a1.15,1.15,0,0,1-1.3-1.3,1.36,1.36,0,0,1,1.3-1.5l13-1.6Z"/><path class="cls-3" d="M541.25,199.11q11.44,0,18.3,7.2t6.85,18.95q0,11.75-6.8,18.9t-18.45,7.15q-11.65,0-18.5-7.2t-6.85-18.8q0-11.59,7-18.9T541.25,199.11Zm13.15,12.2a14.11,14.11,0,0,0-5-6.05A14.3,14.3,0,0,0,541.2,203q-8.31,0-12.4,5.5t-4.1,14.4a39.19,39.19,0,0,0,3.2,16.3,14,14,0,0,0,5.05,5.95,13.91,13.91,0,0,0,7.95,2.25q8.49,0,12.55-5.5t4-14.6A38.8,38.8,0,0,0,554.4,211.31Z"/><path class="cls-3" d="M588.2,199.11c1.06,0,1.6.77,1.6,2.3v4.4c0,.33.11.5.35.5s.55-.2,1-.6q6.09-6.6,13.3-6.6a17.85,17.85,0,0,1,8.85,1.95,13.76,13.76,0,0,1,5.55,6.45q.3.6.6.6c.2,0,.43-.23.7-.7q6.09-8.29,15.3-8.3,7.7,0,12,4.8t4.3,13.9v25.8a3.33,3.33,0,0,0,1.45,2.85,6.86,6.86,0,0,0,3.45,1.25l2.7.2a1.22,1.22,0,0,1,1.2,1.4c0,.87-.5,1.3-1.5,1.3l-10.7-.4-9.1.4c-1,0-1.5-.43-1.5-1.3a1.22,1.22,0,0,1,1.2-1.4l1.3-.2c2.46-.4,3.7-1.77,3.7-4.1v-27.2q0-12.49-10.7-12.5-5,0-8.7,4.85a16.23,16.23,0,0,0-3.7,10v24.7c0,2.6,1.16,4,3.5,4.3l1.7.2c.73.07,1.1.53,1.1,1.4a1.15,1.15,0,0,1-1.3,1.3l-8.8-.4-8.8.4c-1,0-1.5-.42-1.5-1.25a1.31,1.31,0,0,1,1.2-1.45l1.5-.2a3.73,3.73,0,0,0,3.6-4.1v-27.2q0-12.49-10.6-12.5-4.8,0-8.7,4.7a15.53,15.53,0,0,0-3.9,10.1v24.9q0,3.6,4,4.1l1.7.2a1.22,1.22,0,0,1,1.2,1.4c0,.87-.5,1.3-1.5,1.3l-9.5-.4-10.8.4c-1,0-1.5-.43-1.5-1.3a1.22,1.22,0,0,1,1.2-1.4l2.8-.2a6.08,6.08,0,0,0,3.3-1.25,3.49,3.49,0,0,0,1.3-2.85V207a3.6,3.6,0,0,0-.85-2.75,4.13,4.13,0,0,0-2.75-.75H575a1.15,1.15,0,0,1-1.3-1.3,1.36,1.36,0,0,1,1.3-1.5l13-1.6Z"/><path class="cls-3" d="M278.1,301.21c0-.93.5-1.4,1.5-1.4l8.7.4,9.1-.4c.94,0,1.4.45,1.4,1.35s-.36,1.35-1.1,1.35l-1.9.2q-4.5.5-5.8,4.1l-24.7,63.3q-.39,1.2-2.25,1.2a2.26,2.26,0,0,1-2.35-1.2l-24.6-63.3a6.14,6.14,0,0,0-5.7-4.1l-2.1-.2a.87.87,0,0,1-.7-.4,1.33,1.33,0,0,1-.3-.8c0-1,.47-1.5,1.4-1.5l10.5.4,11.1-.4c.94,0,1.4.4,1.4,1.2s-.4,1.43-1.2,1.5l-2.3.2a2.82,2.82,0,0,0-2.45,1.4,3.1,3.1,0,0,0-.25,2.7l19.2,52.4,19.7-52.4a3,3,0,0,0-.15-2.75,3,3,0,0,0-2.65-1.35l-2.2-.2C278.54,302.38,278.1,301.94,278.1,301.21Z"/><path class="cls-3" d="M343.6,338.61q0,6-5.4,6H309.4c-.8,0-1.2.57-1.2,1.7q.21,9.19,5.35,14.55a17.4,17.4,0,0,0,13.1,5.35q8,0,11.75-3.1a1.63,1.63,0,0,1,2.4.1c.74.73.64,1.57-.3,2.5q-5.6,5.6-15.4,5.6-12.3,0-19.25-7.05t-7-19.65a25.82,25.82,0,0,1,6.9-17.85q6.9-7.65,16.45-7.65t15.45,5.55A18.36,18.36,0,0,1,343.6,338.61Zm-9-1.3a16,16,0,0,0-3.25-10.15,10.88,10.88,0,0,0-9.1-4.15,12.64,12.64,0,0,0-9.95,4.8,16.47,16.47,0,0,0-4.1,11c0,1.07.43,1.6,1.3,1.6h22Q334.61,340.41,334.6,337.31Z"/><path class="cls-3" d="M387.8,357.31a12.15,12.15,0,0,1-5.05,10.15,19.65,19.65,0,0,1-12.3,3.85,36.62,36.62,0,0,1-12.05-1.7q-4.8-1.69-4.8-3.8v-8.7q0-1.8,1.35-1.8c.9,0,1.52.6,1.85,1.8q3.1,10.31,13,10.3a11.71,11.71,0,0,0,7.4-2.25,6.86,6.86,0,0,0,2.9-5.65,7.63,7.63,0,0,0-2.7-5.85,26.16,26.16,0,0,0-6.55-4.25q-3.84-1.8-7.7-3.8a21.6,21.6,0,0,1-6.55-5.15,10.82,10.82,0,0,1-2.7-7.25,12.71,12.71,0,0,1,4.7-10.1q4.71-4,12.5-4a24.88,24.88,0,0,1,9.5,1.75q4.31,1.75,4.3,3.75v7.7c0,1.2-.46,1.8-1.4,1.8s-1.53-.6-1.8-1.8Q379,323,370.4,323a11,11,0,0,0-6.6,1.95,6.1,6.1,0,0,0-2.7,5.2,7.59,7.59,0,0,0,2.75,5.75,26.72,26.72,0,0,0,6.7,4.35c2.64,1.23,5.25,2.53,7.85,3.9a21.43,21.43,0,0,1,6.65,5.4A11.82,11.82,0,0,1,387.8,357.31Z"/><path class="cls-3" d="M432,357.31A12.15,12.15,0,0,1,427,367.46a19.69,19.69,0,0,1-12.3,3.85,36.62,36.62,0,0,1-12-1.7q-4.8-1.69-4.8-3.8v-8.7q0-1.8,1.35-1.8c.9,0,1.52.6,1.85,1.8q3.11,10.31,13,10.3a11.71,11.71,0,0,0,7.4-2.25,6.88,6.88,0,0,0,2.9-5.65,7.63,7.63,0,0,0-2.7-5.85,26.16,26.16,0,0,0-6.55-4.25c-2.57-1.2-5.13-2.47-7.7-3.8a21.6,21.6,0,0,1-6.55-5.15,10.82,10.82,0,0,1-2.7-7.25,12.71,12.71,0,0,1,4.7-10.1q4.69-4,12.5-4a24.91,24.91,0,0,1,9.5,1.75q4.31,1.75,4.3,3.75v7.7c0,1.2-.47,1.8-1.4,1.8s-1.53-.6-1.8-1.8q-2.7-9.3-11.3-9.3A11,11,0,0,0,408,325a6.1,6.1,0,0,0-2.7,5.2,7.59,7.59,0,0,0,2.75,5.75,26.54,26.54,0,0,0,6.7,4.35q3.94,1.85,7.85,3.9a21.43,21.43,0,0,1,6.65,5.4A11.88,11.88,0,0,1,432,357.31Z"/><path class="cls-3" d="M486.2,338.61q0,6-5.4,6H452c-.8,0-1.2.57-1.2,1.7q.19,9.19,5.35,14.55a17.38,17.38,0,0,0,13.1,5.35q8,0,11.75-3.1a1.63,1.63,0,0,1,2.4.1c.73.73.63,1.57-.3,2.5q-5.61,5.6-15.4,5.6-12.3,0-19.25-7.05t-6.95-19.65a25.82,25.82,0,0,1,6.9-17.85q6.9-7.65,16.45-7.65t15.45,5.55A18.36,18.36,0,0,1,486.2,338.61Zm-9-1.3A16,16,0,0,0,474,327.16a10.9,10.9,0,0,0-9.1-4.15,12.63,12.63,0,0,0-10,4.8,16.47,16.47,0,0,0-4.1,11c0,1.07.43,1.6,1.3,1.6h22Q477.21,340.41,477.2,337.31Z"/><path class="cls-3" d="M507.5,290.21c1.06,0,1.6.77,1.6,2.3v71.1q0,3.6,4,4.1l1.7.2a1.22,1.22,0,0,1,1.2,1.4c0,.87-.5,1.3-1.5,1.3l-9.5-.4-10.8.4c-1,0-1.5-.43-1.5-1.3a1.22,1.22,0,0,1,1.2-1.4l2.8-.2a6.08,6.08,0,0,0,3.3-1.25,3.49,3.49,0,0,0,1.3-2.85v-65.5a3.6,3.6,0,0,0-.85-2.75,4.13,4.13,0,0,0-2.75-.75h-3.4a1.15,1.15,0,0,1-1.3-1.3,1.36,1.36,0,0,1,1.3-1.5l13-1.6Z"/><path class="cls-3" d="M559.2,357.31a12.17,12.17,0,0,1-5.05,10.15,19.69,19.69,0,0,1-12.3,3.85,36.58,36.58,0,0,1-12.05-1.7q-4.8-1.69-4.8-3.8v-8.7q0-1.8,1.35-1.8c.9,0,1.51.6,1.85,1.8q3.09,10.31,13,10.3a11.73,11.73,0,0,0,7.4-2.25,6.88,6.88,0,0,0,2.9-5.65,7.63,7.63,0,0,0-2.7-5.85,26.35,26.35,0,0,0-6.55-4.25q-3.86-1.8-7.7-3.8a21.6,21.6,0,0,1-6.55-5.15,10.82,10.82,0,0,1-2.7-7.25,12.68,12.68,0,0,1,4.7-10.1q4.69-4,12.5-4a25,25,0,0,1,9.5,1.75c2.86,1.17,4.3,2.42,4.3,3.75v7.7c0,1.2-.47,1.8-1.4,1.8s-1.54-.6-1.8-1.8q-2.7-9.3-11.3-9.3a11,11,0,0,0-6.6,1.95,6.1,6.1,0,0,0-2.7,5.2,7.56,7.56,0,0,0,2.75,5.75,26.36,26.36,0,0,0,6.7,4.35q3.94,1.85,7.85,3.9a21.55,21.55,0,0,1,6.65,5.4A11.88,11.88,0,0,1,559.2,357.31Z"/><path class="cls-3" d="M181.4,463.48a4.9,4.9,0,0,1-2.12,4.29,8.76,8.76,0,0,1-5.13,1.47,14.39,14.39,0,0,1-5-.72c-1.29-.48-1.93-1-1.93-1.59v-3.51q0-.63.48-.63t.54.57a8,8,0,0,0,2,3.43,5,5,0,0,0,3.5,1.13,6,6,0,0,0,3.64-1,3.3,3.3,0,0,0,1.4-2.82,3.9,3.9,0,0,0-2.22-3.33,24.56,24.56,0,0,0-2.19-1.17c-.8-.38-1.6-.78-2.4-1.19a16.53,16.53,0,0,1-2.19-1.33,4.9,4.9,0,0,1-2.22-4.1,4.68,4.68,0,0,1,1.9-3.93,7.19,7.19,0,0,1,4.49-1.45,13.06,13.06,0,0,1,4.38.64c1.2.43,1.8.91,1.8,1.43v3c0,.4-.15.6-.44.6s-.5-.2-.64-.6a6.55,6.55,0,0,0-1.65-2.85,4.4,4.4,0,0,0-3.05-.93,4.88,4.88,0,0,0-3.19,1,3,3,0,0,0-1.17,2.38,3.18,3.18,0,0,0,1.17,2.46,12.11,12.11,0,0,0,2.83,1.83q1.66.8,3.33,1.65a9.41,9.41,0,0,1,2.84,2.21A4.58,4.58,0,0,1,181.4,463.48Z"/><path class="cls-3" d="M187.64,453.58q.48,0,.48.69v.57c0,.24.08.29.25.15a7.31,7.31,0,0,1,.71-.5,6.77,6.77,0,0,1,1.38-.6,5.85,5.85,0,0,1,1.89-.31,7.49,7.49,0,0,1,5.59,2.11,8.62,8.62,0,0,1-.1,11.37,7.3,7.3,0,0,1-5.34,2.18,6.59,6.59,0,0,1-4-1.26c-.1-.08-.19-.09-.26,0a.38.38,0,0,0-.1.3v7.68q0,1.08,1.2,1.23l.51.06a.36.36,0,0,1,.36.42q0,.39-.45.39l-2.85-.12-3.24.12q-.45,0-.45-.39a.36.36,0,0,1,.36-.42l.84-.06a1.83,1.83,0,0,0,1-.38,1,1,0,0,0,.39-.85V456a1.08,1.08,0,0,0-.26-.83,1.22,1.22,0,0,0-.82-.22h-1a.34.34,0,0,1-.39-.39.41.41,0,0,1,.39-.45l3.9-.48Zm9.78,8.79a9.36,9.36,0,0,0-1.44-5.58,4.3,4.3,0,0,0-3.59-2,4.16,4.16,0,0,0-3.21,1.15,3.57,3.57,0,0,0-1.06,2.45v6a3.25,3.25,0,0,0,1.27,2.53,4.23,4.23,0,0,0,2.81,1.1,5,5,0,0,0,3.81-1.5A5.89,5.89,0,0,0,197.42,462.37Z"/><path class="cls-3" d="M216.44,459.43q0,1.8-1.62,1.8h-8.64q-.36,0-.36.51a6.22,6.22,0,0,0,1.6,4.36,5.22,5.22,0,0,0,3.93,1.61,5.54,5.54,0,0,0,3.53-.93.49.49,0,0,1,.72,0q.33.33-.09.75a6.24,6.24,0,0,1-4.62,1.68,7.76,7.76,0,0,1-5.78-2.12,8,8,0,0,1-2.08-5.89,7.76,7.76,0,0,1,2.07-5.36,6.41,6.41,0,0,1,4.93-2.29,6.5,6.5,0,0,1,4.64,1.66A5.51,5.51,0,0,1,216.44,459.43Zm-2.7-.39a4.8,4.8,0,0,0-1-3.05,3.27,3.27,0,0,0-2.73-1.24,3.78,3.78,0,0,0-3,1.44,4.94,4.94,0,0,0-1.23,3.3q0,.48.39.48h6.6A.82.82,0,0,0,213.74,459Z"/><path class="cls-3" d="M222.83,444.91q.48,0,.48.69v21.33q0,1.08,1.2,1.23l.51.06a.36.36,0,0,1,.36.42q0,.39-.45.39l-2.85-.12-3.24.12q-.45,0-.45-.39a.36.36,0,0,1,.36-.42l.84-.06a1.83,1.83,0,0,0,1-.38,1,1,0,0,0,.39-.85V447.28a1.08,1.08,0,0,0-.26-.83,1.22,1.22,0,0,0-.82-.22h-1a.34.34,0,0,1-.39-.39.41.41,0,0,1,.39-.45l3.9-.48Z"/><path class="cls-3" d="M231.47,444.91q.48,0,.48.69v21.33q0,1.08,1.2,1.23l.51.06a.36.36,0,0,1,.36.42q0,.39-.45.39l-2.85-.12-3.24.12q-.45,0-.45-.39a.36.36,0,0,1,.36-.42l.84-.06a1.83,1.83,0,0,0,1-.38,1,1,0,0,0,.39-.85V447.28a1.08,1.08,0,0,0-.26-.83,1.22,1.22,0,0,0-.82-.22h-1a.34.34,0,0,1-.39-.39.41.41,0,0,1,.39-.45l3.9-.48Z"/><path class="cls-3" d="M244.94,453.58a6.5,6.5,0,0,1,4.86,2.17,8.3,8.3,0,0,1-.2,11.19,7.34,7.34,0,0,1-5.41,2.3,8.83,8.83,0,0,1-4-.84,2.07,2.07,0,0,0-.81-.27,1.19,1.19,0,0,0-1,.69q-.18.42-.45.42-.57,0-.51-.54.15-1.29.15-1.77V447.28a1.08,1.08,0,0,0-.26-.81,1.11,1.11,0,0,0-.79-.24h-1a.34.34,0,0,1-.39-.39.41.41,0,0,1,.39-.45l3.87-.48h.15q.54,0,.54.69l-.18,6.84v2.1c0,.18,0,.29.12.34a.15.15,0,0,0,.21,0A8.4,8.4,0,0,1,244.94,453.58Zm4.29,8.73a9.18,9.18,0,0,0-1.4-5.46,4.49,4.49,0,0,0-3.84-1.92,5,5,0,0,0-3.76,1.38.86.86,0,0,0-.3.6v7.74a3,3,0,0,0,1.2,2.43,4.21,4.21,0,0,0,2.76,1,5,5,0,0,0,3.9-1.59A6,6,0,0,0,249.23,462.31Z"/><path class="cls-3" d="M262.5,453.58a7.22,7.22,0,0,1,5.49,2.16,8.88,8.88,0,0,1,0,11.35,8.21,8.21,0,0,1-11.09,0,8.74,8.74,0,0,1,.05-11.31A7.31,7.31,0,0,1,262.5,453.58Zm3.95,3.66a4.1,4.1,0,0,0-4-2.49,4.34,4.34,0,0,0-3.72,1.65,7,7,0,0,0-1.23,4.32,11.79,11.79,0,0,0,1,4.89,4.14,4.14,0,0,0,3.9,2.46,4.36,4.36,0,0,0,3.76-1.65,7.22,7.22,0,0,0,1.22-4.38A11.61,11.61,0,0,0,266.45,457.24Z"/><path class="cls-3" d="M280.68,453.58a7.22,7.22,0,0,1,5.49,2.16,8.88,8.88,0,0,1,0,11.35,8.21,8.21,0,0,1-11.09,0,8.74,8.74,0,0,1,0-11.31A7.31,7.31,0,0,1,280.68,453.58Zm3.95,3.66a4.1,4.1,0,0,0-4-2.49A4.34,4.34,0,0,0,277,456.4a7,7,0,0,0-1.23,4.32,11.79,11.79,0,0,0,1,4.89,4.14,4.14,0,0,0,3.9,2.46,4.36,4.36,0,0,0,3.76-1.65,7.22,7.22,0,0,0,1.22-4.38A11.61,11.61,0,0,0,284.63,457.24Z"/><path class="cls-3" d="M292.91,466.93V447.28a1.08,1.08,0,0,0-.26-.83,1.22,1.22,0,0,0-.82-.22h-1a.34.34,0,0,1-.39-.39.41.41,0,0,1,.39-.45l3.9-.48q.54,0,.54.69V460q0,.27.21.27h1.26a.58.58,0,0,0,.42-.18l4.23-4.44a1,1,0,0,0,.27-.53,1.05,1.05,0,0,0-.23-.52,1,1,0,0,1-.22-.48q0-.33.42-.33l1.89.09,2.22-.12q.45,0,.45.36a.39.39,0,0,1-.36.42l-.42.06a3.08,3.08,0,0,0-1.8,1l-4.65,4.71a.33.33,0,0,0-.12.22.35.35,0,0,0,.12.23l5.37,6.18q1,1.17,1.59,1.23l.54.06a.41.41,0,0,1-.06.81q-2.25-.12-2.79-.12l-1.83.09q-.45,0-.45-.33a1,1,0,0,1,.16-.5,1,1,0,0,0,.17-.46.84.84,0,0,0-.27-.48l-4.47-5.43a.54.54,0,0,0-.39-.18h-1a.24.24,0,0,0-.27.27v5q0,1.08,1.2,1.23l.51.06a.36.36,0,0,1,.36.42q0,.39-.45.39l-2.85-.12-3.24.12q-.45,0-.45-.39a.36.36,0,0,1,.36-.42l.84-.06a1.83,1.83,0,0,0,1-.38A1,1,0,0,0,292.91,466.93Z"/><path class="cls-3" d="M320.78,468.22a.36.36,0,0,1,.36.42q0,.39-.45.39l-2.85-.12-3.24.12q-.45,0-.45-.39a.36.36,0,0,1,.36-.42l.84-.06a1.83,1.83,0,0,0,1-.38,1,1,0,0,0,.39-.85V456a1.08,1.08,0,0,0-.26-.83,1.22,1.22,0,0,0-.82-.22h-1a.34.34,0,0,1-.39-.39.41.41,0,0,1,.39-.45l3.9-.48q.54-.06.54.69v12.66q0,1.08,1.2,1.23Zm-4.16-19.17a1.43,1.43,0,0,1,0-2,1.4,1.4,0,0,1,1-.39,1.44,1.44,0,0,1,1,.39,1.38,1.38,0,0,1,0,2,1.44,1.44,0,0,1-1,.39A1.4,1.4,0,0,1,316.62,449.05Z"/><path class="cls-3" d="M327.23,453.58q.48,0,.48.69v1.53c0,.1,0,.15.1.15a.5.5,0,0,0,.29-.18,5.52,5.52,0,0,1,4.54-2.19,5.87,5.87,0,0,1,4.31,1.48,5.76,5.76,0,0,1,1.5,4.28v7.59a1,1,0,0,0,.43.85,2.11,2.11,0,0,0,1,.38l.81.06a.36.36,0,0,1,.36.42q0,.39-.45.39l-3.21-.12-2.73.12q-.45,0-.45-.39a.36.36,0,0,1,.36-.42l.39-.06a1.15,1.15,0,0,0,1.11-1.23v-8a3.83,3.83,0,0,0-1.05-2.88,4.29,4.29,0,0,0-6.05.49,4.62,4.62,0,0,0-1.3,3v7.41q0,1.08,1.2,1.23l.51.06a.36.36,0,0,1,.36.42q0,.39-.45.39l-2.85-.12-3.24.12q-.45,0-.45-.39a.36.36,0,0,1,.36-.42l.84-.06a1.83,1.83,0,0,0,1-.38,1,1,0,0,0,.39-.85V456a1.08,1.08,0,0,0-.26-.83,1.22,1.22,0,0,0-.82-.22h-1a.34.34,0,0,1-.39-.39.41.41,0,0,1,.39-.45l3.9-.48Z"/><path class="cls-3" d="M359.09,467.47c0,.38-.41.77-1.22,1.17a5.45,5.45,0,0,1-2.44.6,4.09,4.09,0,0,1-3.14-1,5.08,5.08,0,0,1-.94-3.46v-9q0-.33-.39-.33h-1.83a.4.4,0,0,1-.27-.11.25.25,0,0,1-.09-.25l.09-.78q.06-.36.36-.36H351q.27,0,.27-.33l.27-4.17a.52.52,0,0,1,.57-.57.57.57,0,0,1,.57.45l1,4.23a.43.43,0,0,0,.45.39h4.47q.42,0,.33.36l-.09.78q-.06.36-.36.36h-4.56q-.24,0-.24.33V465q0,2.82,2.19,2.82a5.51,5.51,0,0,0,1.95-.36l1-.36Q359.09,467.14,359.09,467.47Z"/><path class="cls-3" d="M364.16,444.91q.48,0,.48.69v10.2c0,.1,0,.15.1.15a.5.5,0,0,0,.29-.18,5.52,5.52,0,0,1,4.54-2.19,5.87,5.87,0,0,1,4.31,1.48,5.76,5.76,0,0,1,1.5,4.28v7.59a1,1,0,0,0,.39.85,1.83,1.83,0,0,0,1,.38l.84.06a.36.36,0,0,1,.36.42q0,.39-.45.39l-3.24-.12-2.7.12q-.45,0-.45-.39a.36.36,0,0,1,.36-.42l.36-.06q1.2-.21,1.2-1.23v-8A3.83,3.83,0,0,0,372,456a4.29,4.29,0,0,0-6.05.49,4.62,4.62,0,0,0-1.3,3v7.41q0,1.08,1.2,1.23l.45.06a.36.36,0,0,1,.36.42q0,.39-.45.39l-2.79-.12-3.24.12q-.45,0-.45-.39a.36.36,0,0,1,.36-.42l.84-.06a1.83,1.83,0,0,0,1-.38,1,1,0,0,0,.39-.85V447.28a1.08,1.08,0,0,0-.26-.83,1.22,1.22,0,0,0-.82-.22h-1a.34.34,0,0,1-.39-.39.41.41,0,0,1,.39-.45l3.9-.48Z"/><path class="cls-3" d="M393.17,459.43q0,1.8-1.62,1.8h-8.64q-.36,0-.36.51a6.22,6.22,0,0,0,1.6,4.36,5.22,5.22,0,0,0,3.93,1.61,5.54,5.54,0,0,0,3.53-.93.49.49,0,0,1,.72,0q.33.33-.09.75a6.24,6.24,0,0,1-4.62,1.68,7.76,7.76,0,0,1-5.78-2.12,8,8,0,0,1-2.08-5.89,7.76,7.76,0,0,1,2.07-5.36,6.41,6.41,0,0,1,4.93-2.29,6.5,6.5,0,0,1,4.64,1.66A5.51,5.51,0,0,1,393.17,459.43Zm-2.7-.39a4.8,4.8,0,0,0-1-3.05,3.27,3.27,0,0,0-2.73-1.24,3.78,3.78,0,0,0-3,1.44,4.94,4.94,0,0,0-1.23,3.3q0,.48.39.48h6.6A.82.82,0,0,0,390.47,459Z"/><path class="cls-3" d="M424.25,468.22c.22,0,.33.13.33.4a.37.37,0,0,1-.42.41l-3.36-.12-2.94.12q-.45,0-.45-.42a.36.36,0,0,1,.33-.39l.54-.06q1.2-.15,1.2-1.23v-7.44q0-.57-.54-.57H408a.46.46,0,0,0-.36.16.59.59,0,0,0-.15.41v7.44q0,1.08,1.2,1.23l.51.06q.39.06.39.39a.39.39,0,0,1-.14.3.45.45,0,0,1-.31.12l-3-.12-3.39.12a.37.37,0,0,1-.42-.41c0-.27.11-.4.33-.4l.87-.06a1.83,1.83,0,0,0,1-.38,1,1,0,0,0,.39-.85v-17q0-1.08-1.38-1.2l-.87-.09c-.22,0-.33-.14-.33-.41s.14-.4.42-.4l3.39.12,3-.12q.45,0,.45.36a.39.39,0,0,1-.39.45l-.51.09q-1.2.21-1.2,1.2v7.05a.53.53,0,0,0,.6.6h10.86q.57,0,.57-.51v-7.14q0-1-1.2-1.2l-.54-.09a.36.36,0,0,1-.33-.39q0-.42.45-.42l2.94.12,3.36-.12c.28,0,.42.13.42.4s-.11.41-.33.41l-.9.09q-1.32.12-1.32,1.2v17q0,1.11,1.32,1.23Z"/><path class="cls-3" d="M434.61,453.58a7.22,7.22,0,0,1,5.49,2.16,8.88,8.88,0,0,1,0,11.35,8.21,8.21,0,0,1-11.09,0,8.74,8.74,0,0,1,.05-11.31A7.31,7.31,0,0,1,434.61,453.58Zm3.95,3.66a4.66,4.66,0,0,0-7.68-.84,7,7,0,0,0-1.23,4.32,11.63,11.63,0,0,0,1,4.89,4.22,4.22,0,0,0,1.51,1.78,4.17,4.17,0,0,0,2.39.68,4.36,4.36,0,0,0,3.76-1.65,7.22,7.22,0,0,0,1.22-4.38A11.78,11.78,0,0,0,438.56,457.24Z"/><path class="cls-3" d="M459.71,455.17v11a2,2,0,0,0,.6,1.54,2,2,0,0,0,1.44.59c.29,0,.45.12.45.36s-.39.57-1.17.57a4,4,0,0,1-3.09-1.47l-.19-.21-.14-.21a.34.34,0,0,0-.26-.15.73.73,0,0,0-.4.24,6.84,6.84,0,0,1-4.64,1.8,5.73,5.73,0,0,1-4.15-1.5,5.63,5.63,0,0,1-1.56-4.26v-7.59a.91.91,0,0,0-1.06-1.08h-1a.42.42,0,0,1-.29-.12.38.38,0,0,1-.13-.3q0-.36.42-.42l4-.39h.15q.6,0,.6.48a1.27,1.27,0,0,1-.16.36,1.82,1.82,0,0,0-.14.75V464a3.77,3.77,0,0,0,1.15,2.92,4.21,4.21,0,0,0,3,1.07,4,4,0,0,0,3.06-1.35,4.4,4.4,0,0,0,1.25-3.06v-7.65a.91.91,0,0,0-1.05-1.08H455a.42.42,0,0,1-.29-.12.38.38,0,0,1-.13-.3c0-.24.13-.38.42-.42l4.2-.39h.15q.6,0,.6.48a1.67,1.67,0,0,1-.12.36A2,2,0,0,0,459.71,455.17Z"/><path class="cls-3" d="M474.41,465a3.64,3.64,0,0,1-1.52,3,5.91,5.91,0,0,1-3.69,1.16,11,11,0,0,1-3.62-.51c-1-.34-1.43-.72-1.43-1.14V465c0-.36.13-.54.4-.54s.45.18.56.54a3.8,3.8,0,0,0,3.89,3.09,3.55,3.55,0,0,0,2.23-.68,2.07,2.07,0,0,0,.86-1.69,2.29,2.29,0,0,0-.8-1.76,7.86,7.86,0,0,0-2-1.27q-1.15-.54-2.31-1.14a6.54,6.54,0,0,1-2-1.55,3.22,3.22,0,0,1-.8-2.17,3.81,3.81,0,0,1,1.41-3,5.55,5.55,0,0,1,3.75-1.2,7.57,7.57,0,0,1,2.85.52c.85.35,1.29.73,1.29,1.13v2.31c0,.36-.15.54-.42.54s-.46-.18-.54-.54a3.34,3.34,0,0,0-3.39-2.79,3.29,3.29,0,0,0-2,.58,1.83,1.83,0,0,0-.81,1.56,2.28,2.28,0,0,0,.82,1.73,8,8,0,0,0,2,1.3c.79.37,1.57.76,2.35,1.17a6.32,6.32,0,0,1,2,1.62A3.58,3.58,0,0,1,474.41,465Z"/><path class="cls-3" d="M490.66,459.43q0,1.8-1.62,1.8H480.4q-.36,0-.36.51a6.23,6.23,0,0,0,1.61,4.36,5.22,5.22,0,0,0,3.93,1.61,5.51,5.51,0,0,0,3.52-.93.49.49,0,0,1,.72,0q.33.33-.09.75a6.24,6.24,0,0,1-4.62,1.68,7.73,7.73,0,0,1-5.77-2.12,8,8,0,0,1-2.09-5.89,7.76,7.76,0,0,1,2.07-5.36,6.83,6.83,0,0,1,9.57-.63A5.51,5.51,0,0,1,490.66,459.43ZM488,459a4.8,4.8,0,0,0-1-3.05,3.27,3.27,0,0,0-2.73-1.24,3.8,3.8,0,0,0-3,1.44,4.94,4.94,0,0,0-1.23,3.3q0,.48.39.48H487A.82.82,0,0,0,488,459Z"/><path class="cls-3" d="M508.05,453.58a7.22,7.22,0,0,1,5.49,2.16,8.9,8.9,0,0,1,0,11.35,8.2,8.2,0,0,1-11.08,0,8.73,8.73,0,0,1,0-11.31A7.33,7.33,0,0,1,508.05,453.58Zm3.94,3.66a4.21,4.21,0,0,0-1.51-1.82,4.94,4.94,0,0,0-6.17,1,7,7,0,0,0-1.23,4.32,11.79,11.79,0,0,0,1,4.89,4.24,4.24,0,0,0,1.52,1.78,4.16,4.16,0,0,0,2.38.68,4.38,4.38,0,0,0,3.77-1.65,7.22,7.22,0,0,0,1.21-4.38A11.61,11.61,0,0,0,512,457.24Z"/><path class="cls-3" d="M522.58,455.74v11.19a1.08,1.08,0,0,0,.39.87,1.61,1.61,0,0,0,1,.36l1.08.06a.36.36,0,0,1,.36.42q0,.39-.45.39l-3.48-.12-2.85.12q-.45,0-.45-.39a.36.36,0,0,1,.36-.42l.51-.06q1.2-.15,1.2-1.23V455.74q0-.33-.36-.33h-1.83q-.36,0-.36-.39v-.24q0-.3.36-.36l1.68-.42q.51-.12.51-.54v-.12a9.75,9.75,0,0,1,1.82-6,5.79,5.79,0,0,1,4.9-2.43,5.23,5.23,0,0,1,1.92.3q1.17.42,1.17,1.08v1.95a.52.52,0,0,1-.13.34.41.41,0,0,1-.32.17.68.68,0,0,1-.63-.51,2.84,2.84,0,0,0-1.15-1.4,3.32,3.32,0,0,0-1.79-.49,2.89,2.89,0,0,0-2.58,1.32,6.8,6.8,0,0,0-.87,3.75v2.16q0,.33.3.33h3.9q.39,0,.33.36L527,455q-.06.39-.36.39h-3.78Q522.58,455.41,522.58,455.74Z"/><path class="cls-3" d="M557.08,468.22c.22,0,.33.13.33.4a.37.37,0,0,1-.42.41l-3.36-.12-2.94.12q-.45,0-.45-.42a.36.36,0,0,1,.33-.39l.54-.06q1.2-.15,1.2-1.23v-7.44q0-.57-.54-.57h-11a.46.46,0,0,0-.36.16.59.59,0,0,0-.15.41v7.44q0,1.08,1.2,1.23l.51.06q.39.06.39.39a.38.38,0,0,1-.13.3.47.47,0,0,1-.32.12l-3-.12-3.39.12a.37.37,0,0,1-.42-.41c0-.27.11-.4.33-.4l.87-.06a1.83,1.83,0,0,0,1-.38,1,1,0,0,0,.39-.85v-17q0-1.08-1.38-1.2l-.87-.09c-.22,0-.33-.14-.33-.41s.14-.4.42-.4l3.39.12,3-.12q.45,0,.45.36a.39.39,0,0,1-.39.45l-.51.09q-1.2.21-1.2,1.2v7.05a.53.53,0,0,0,.6.6h10.86q.57,0,.57-.51v-7.14q0-1-1.2-1.2l-.54-.09a.36.36,0,0,1-.33-.39q0-.42.45-.42l2.94.12,3.36-.12c.28,0,.42.13.42.4s-.11.41-.33.41l-.9.09q-1.32.12-1.32,1.2v17q0,1.11,1.32,1.23Z"/><path class="cls-3" d="M573.22,459.43q0,1.8-1.62,1.8H563q-.36,0-.36.51a6.23,6.23,0,0,0,1.61,4.36,5.22,5.22,0,0,0,3.93,1.61,5.51,5.51,0,0,0,3.52-.93.49.49,0,0,1,.72,0q.33.33-.09.75a6.24,6.24,0,0,1-4.62,1.68,7.73,7.73,0,0,1-5.77-2.12,8,8,0,0,1-2.09-5.89,7.76,7.76,0,0,1,2.07-5.36,6.83,6.83,0,0,1,9.57-.63A5.51,5.51,0,0,1,573.22,459.43Zm-2.7-.39a4.8,4.8,0,0,0-1-3.05,3.27,3.27,0,0,0-2.73-1.24,3.8,3.8,0,0,0-3,1.44,4.94,4.94,0,0,0-1.23,3.3q0,.48.39.48h6.6A.82.82,0,0,0,570.52,459Z"/><path class="cls-3" d="M589.6,468.76q0,.48-1.08.48a4,4,0,0,1-3.15-1.47c-.14-.14-.24-.21-.31-.21a.62.62,0,0,0-.32.18,7,7,0,0,1-4.38,1.5,4.58,4.58,0,0,1-3-1.07,3.39,3.39,0,0,1-1.29-2.74,3.56,3.56,0,0,1,1.86-3.24,15.39,15.39,0,0,1,5.16-1.5l1.14-.21a.38.38,0,0,0,.39-.42V457.3a2.45,2.45,0,0,0-.82-1.95,3.21,3.21,0,0,0-2.19-.72,3.94,3.94,0,0,0-2.46.84,3.77,3.77,0,0,0-1.4,2.34c-.06.3-.22.45-.49.45s-.41-.15-.41-.45v-2.25a.87.87,0,0,1,.33-.75,7.32,7.32,0,0,1,4.56-1.23q3,0,4.17,1.29a4.69,4.69,0,0,1,1.2,3.33v8a2.09,2.09,0,0,0,.62,1.56,2,2,0,0,0,1.45.6Q589.6,468.37,589.6,468.76Zm-5-2.79v-3.75q0-.45-.39-.45h-.09q-5.37.66-5.37,3.3a2.42,2.42,0,0,0,.81,1.93,2.71,2.71,0,0,0,1.82.71,3.85,3.85,0,0,0,1.77-.39,3.78,3.78,0,0,0,1.11-.78A1.11,1.11,0,0,0,584.56,466Z"/><path class="cls-3" d="M594.94,453.58q.48,0,.48.69v1.62q0,.15.12.15t.27-.18a6.69,6.69,0,0,1,1.91-1.58,4.42,4.42,0,0,1,2.16-.7,3.93,3.93,0,0,1,1.45.21q.51.21.51.48v2.31q0,.45-.42.45-.24,0-.63-.45a2.68,2.68,0,0,0-2.17-1,2.75,2.75,0,0,0-2.27,1.26,6,6,0,0,0-.93,3.63v6.48q0,1.08,1.59,1.2l1.23.09a.36.36,0,0,1,.36.42q0,.39-.45.39l-4-.12L591,469q-.45,0-.45-.39a.36.36,0,0,1,.36-.42l.84-.06a1.83,1.83,0,0,0,1-.38,1,1,0,0,0,.39-.85V456a1.08,1.08,0,0,0-.25-.83,1.25,1.25,0,0,0-.83-.22h-1a.34.34,0,0,1-.39-.39.41.41,0,0,1,.39-.45l3.9-.48Z"/><path class="cls-3" d="M612.94,467.47c0,.38-.4.77-1.21,1.17a5.5,5.5,0,0,1-2.45.6,4.07,4.07,0,0,1-3.13-1,5.08,5.08,0,0,1-.95-3.46v-9q0-.33-.39-.33H603a.4.4,0,0,1-.27-.11.25.25,0,0,1-.09-.25l.09-.78q.06-.36.36-.36h1.8q.27,0,.27-.33l.27-4.17a.52.52,0,0,1,.57-.57.57.57,0,0,1,.57.45l1,4.23a.43.43,0,0,0,.45.39h4.47q.42,0,.33.36l-.09.78q-.06.36-.36.36h-4.56q-.24,0-.24.33V465q0,2.82,2.19,2.82a5.51,5.51,0,0,0,1.95-.36l1-.36Q612.94,467.14,612.94,467.47Z"/><path class="cls-3" d="M624.88,465a3.63,3.63,0,0,1-1.51,3,5.91,5.91,0,0,1-3.69,1.16,11,11,0,0,1-3.62-.51q-1.44-.51-1.44-1.14V465c0-.36.14-.54.41-.54s.45.18.55.54a3.81,3.81,0,0,0,3.9,3.09,3.52,3.52,0,0,0,2.22-.68,2.05,2.05,0,0,0,.87-1.69,2.3,2.3,0,0,0-.81-1.76,7.8,7.8,0,0,0-2-1.27q-1.15-.54-2.31-1.14a6.54,6.54,0,0,1-2-1.55,3.23,3.23,0,0,1-.81-2.17,3.81,3.81,0,0,1,1.41-3,5.59,5.59,0,0,1,3.75-1.2,7.49,7.49,0,0,1,2.85.52c.86.35,1.29.73,1.29,1.13v2.31q0,.54-.42.54t-.54-.54a3.34,3.34,0,0,0-3.39-2.79,3.29,3.29,0,0,0-2,.58,1.83,1.83,0,0,0-.81,1.56,2.29,2.29,0,0,0,.83,1.73,8,8,0,0,0,2,1.3c.79.37,1.57.76,2.35,1.17a6.43,6.43,0,0,1,2,1.62A3.57,3.57,0,0,1,624.88,465Z"/><path class="cls-3" d="M170.63,570.34a.5.5,0,0,1-.17.38.57.57,0,0,1-.37.15l-4.29-.15-3.76.15c-.36,0-.53-.16-.53-.48a.49.49,0,0,1,.41-.55l.65-.07c1.06-.13,1.6-.65,1.6-1.56l-.31-18c0-.26-.07-.38-.23-.38a.15.15,0,0,0-.15.11l-10.33,20.67a.54.54,0,0,1-.46.34c-.18,0-.32-.11-.42-.34L141.9,550.58a.16.16,0,0,0-.15-.12c-.16,0-.23.13-.23.38l-.23,17.37c0,.84.51,1.34,1.52,1.52l.65.11a.5.5,0,0,1,.49.54q0,.45-.57.45l-3.12-.11-3.68.11c-.36,0-.53-.15-.53-.45a.48.48,0,0,1,.41-.54l1.11-.11c1.16-.13,1.74-.63,1.74-1.52l.46-21.58c0-.89-.48-1.4-1.52-1.52l-.68-.08a.49.49,0,0,1-.46-.55q0-.48.57-.48l3.34.12c.87,0,1.41.28,1.64.76l10.75,21.28,10.49-21.28c.23-.46.79-.71,1.67-.76L169,544c.41,0,.61.16.61.48a.49.49,0,0,1-.45.55l-.69.08a1.39,1.39,0,0,0-1.48,1.52l.46,21.58a1.31,1.31,0,0,0,.47,1.08,2.16,2.16,0,0,0,1.2.48l1.1.07C170.47,569.84,170.63,570,170.63,570.34Z"/><path class="cls-3" d="M191.91,553.31v14a2.61,2.61,0,0,0,.76,2,2.51,2.51,0,0,0,1.82.74q.57,0,.57.45c0,.48-.49.73-1.48.73a5.14,5.14,0,0,1-3.92-1.87,2,2,0,0,1-.22-.26,2.78,2.78,0,0,1-.19-.27.43.43,0,0,0-.33-.19,1,1,0,0,0-.51.31,8.63,8.63,0,0,1-5.87,2.28,7.29,7.29,0,0,1-5.26-1.9,7.14,7.14,0,0,1-2-5.4v-9.61a1.14,1.14,0,0,0-1.33-1.37h-1.29a.53.53,0,0,1-.36-.15.48.48,0,0,1-.17-.38c0-.31.17-.49.53-.54l5-.49h.19c.51,0,.76.2.76.61a1.66,1.66,0,0,1-.19.45,2.23,2.23,0,0,0-.19.95v11.14a4.77,4.77,0,0,0,1.47,3.7,5.32,5.32,0,0,0,3.76,1.35,5.09,5.09,0,0,0,3.88-1.71,5.56,5.56,0,0,0,1.57-3.87v-9.69a1.14,1.14,0,0,0-1.33-1.37h-1.67a.53.53,0,0,1-.36-.15.52.52,0,0,1-.17-.38c0-.31.17-.49.53-.54l5.32-.49h.19c.51,0,.76.2.76.61a2.09,2.09,0,0,1-.15.45A2.63,2.63,0,0,0,191.91,553.31Z"/><path class="cls-3" d="M210.53,565.82a4.6,4.6,0,0,1-1.92,3.85,7.47,7.47,0,0,1-4.68,1.47,13.94,13.94,0,0,1-4.58-.65c-1.21-.43-1.82-.91-1.82-1.44v-3.31c0-.46.17-.68.51-.68s.58.22.71.68q1.17,3.91,4.94,3.91a4.45,4.45,0,0,0,2.81-.85,2.63,2.63,0,0,0,1.1-2.15,2.88,2.88,0,0,0-1-2.22,9.92,9.92,0,0,0-2.49-1.62c-1-.45-2-.93-2.92-1.44a8.17,8.17,0,0,1-2.49-2,4.12,4.12,0,0,1-1-2.75,4.82,4.82,0,0,1,1.79-3.84,7.09,7.09,0,0,1,4.75-1.52,9.55,9.55,0,0,1,3.61.66c1.09.45,1.63.92,1.63,1.43v2.93c0,.45-.17.68-.53.68s-.58-.23-.68-.68q-1-3.54-4.3-3.54a4.18,4.18,0,0,0-2.5.74,2.33,2.33,0,0,0-1,2,2.89,2.89,0,0,0,1,2.18,10.12,10.12,0,0,0,2.55,1.66c1,.47,2,1,3,1.48a8.13,8.13,0,0,1,2.53,2A4.5,4.5,0,0,1,210.53,565.82Z"/><path class="cls-3" d="M221.39,569.84a.47.47,0,0,1,.46.54c0,.32-.19.49-.57.49l-3.61-.15-4.1.15c-.38,0-.57-.17-.57-.49a.47.47,0,0,1,.45-.54l1.07-.07a2.29,2.29,0,0,0,1.25-.48,1.29,1.29,0,0,0,.49-1.08V554.3a1.32,1.32,0,0,0-.32-1,1.56,1.56,0,0,0-1-.29h-1.3a.43.43,0,0,1-.49-.49.52.52,0,0,1,.49-.57l4.94-.61q.69-.07.69.87v16c0,.91.5,1.43,1.52,1.56Zm-5.26-24.28a1.8,1.8,0,0,1,0-2.51,1.76,1.76,0,0,1,1.27-.49,1.85,1.85,0,0,1,1.3.49,1.75,1.75,0,0,1,0,2.51,1.85,1.85,0,0,1-1.3.5A1.77,1.77,0,0,1,216.13,545.56Z"/><path class="cls-3" d="M241.12,557.3c0,.43-.18.65-.54.65s-.5-.22-.6-.65a6.93,6.93,0,0,0-1.87-3.3,4.58,4.58,0,0,0-3.26-1.22,5.79,5.79,0,0,0-4.64,2.11,8.41,8.41,0,0,0-1.79,5.61q0,4.37,2.15,6.53a6.78,6.78,0,0,0,5,2.17,8.48,8.48,0,0,0,4.62-1.14.82.82,0,0,1,.49-.19.6.6,0,0,1,.4.15.57.57,0,0,1,.17.44.88.88,0,0,1-.3.59q-2.1,2.09-6.22,2.09a9.52,9.52,0,0,1-6.88-2.65q-2.75-2.64-2.75-7.61a9.37,9.37,0,0,1,2.75-6.75,9.1,9.1,0,0,1,6.79-2.83,11.07,11.07,0,0,1,4.63.85c1.24.57,1.87,1.19,1.87,1.85Z"/><path class="cls-3" d="M264.37,551.3a8.26,8.26,0,0,1,6.16,2.75,10.53,10.53,0,0,1-.25,14.18,9.29,9.29,0,0,1-6.86,2.91,11.16,11.16,0,0,1-5.05-1.07,2.6,2.6,0,0,0-1-.34,1.49,1.49,0,0,0-1.25.87q-.24.54-.57.54c-.48,0-.7-.23-.65-.69a22.38,22.38,0,0,0,.19-2.24V543.32a1.41,1.41,0,0,0-.32-1,1.45,1.45,0,0,0-1-.3H252.4a.43.43,0,0,1-.49-.49.52.52,0,0,1,.49-.57l4.9-.61h.19q.69,0,.69.87l-.23,8.67v2.66c0,.22.05.37.15.43a.19.19,0,0,0,.27,0A10.59,10.59,0,0,1,264.37,551.3Zm5.43,11.06c0-3-.58-5.3-1.76-6.92a5.69,5.69,0,0,0-4.87-2.43,6.29,6.29,0,0,0-4.77,1.75,1.09,1.09,0,0,0-.38.76v9.8a3.86,3.86,0,0,0,1.52,3.08,5.33,5.33,0,0,0,3.5,1.25,6.34,6.34,0,0,0,4.94-2A7.53,7.53,0,0,0,269.8,562.36Z"/><path class="cls-3" d="M290.74,553.5q0-.72-1-.87l-.69-.08a.48.48,0,0,1-.45-.53c0-.3.17-.45.53-.45l3,.15,2.74-.15c.33,0,.49.15.49.45a.47.47,0,0,1-.42.53l-.72.12a2.2,2.2,0,0,0-1.78,1.48L284.24,573q-2.61,5.92-5.32,7.68a2,2,0,0,1-.87.38.5.5,0,0,1-.34-.08l-1.14-1.44a.73.73,0,0,1-.15-.46.47.47,0,0,1,.22-.42,17.94,17.94,0,0,0,1.83-1,11.57,11.57,0,0,0,1.59-1.34c1.12-1.12,2.42-3.37,3.92-6.77a.91.91,0,0,0,.11-.45,1.18,1.18,0,0,0-.11-.5L278,554a2.24,2.24,0,0,0-1.74-1.37l-.73-.12a.47.47,0,0,1-.41-.53c0-.3.17-.45.53-.45l3.76.15,3.76-.15c.43,0,.65.15.65.45s-.17.48-.5.53l-.79.08a1.25,1.25,0,0,0-1,.46.92.92,0,0,0-.08.95l4.3,11.21s.08.08.17.09.16,0,.21-.17L290.63,554A1.73,1.73,0,0,0,290.74,553.5Z"/><path class="cls-3" d="M328.06,550.62a.94.94,0,0,1-.17.51.54.54,0,0,1-.44.25c-.43,0-.71-.26-.84-.76a7.2,7.2,0,0,0-2.54-4,6.94,6.94,0,0,0-4.41-1.45,9.16,9.16,0,0,0-7.32,3.16,11.88,11.88,0,0,0-2.71,8,14.17,14.17,0,0,0,2.87,8.74,8.63,8.63,0,0,0,7.16,3.84,10.86,10.86,0,0,0,3.71-.48c.82-.31,1.38-.54,1.67-.68a10.75,10.75,0,0,0,1.12-.66c.45-.31.71-.47.76-.5.45-.28.77-.32.95-.13a.7.7,0,0,1,0,1.12,10,10,0,0,1-2.66,2.17,12.34,12.34,0,0,1-5.89,1.33,12.59,12.59,0,0,1-9.61-3.92,13.78,13.78,0,0,1-3.69-9.84,13.48,13.48,0,0,1,3.76-9.8,13.19,13.19,0,0,1,9.92-3.88,18.25,18.25,0,0,1,5.8.87c1.73.59,2.6,1.16,2.6,1.71Z"/><path class="cls-3" d="M336.42,540.32c.4,0,.61.29.61.87v12.92c0,.13,0,.19.13.19s.21-.07.36-.23a7,7,0,0,1,5.76-2.77,7.44,7.44,0,0,1,5.45,1.88,7.27,7.27,0,0,1,1.9,5.42v9.61a1.29,1.29,0,0,0,.49,1.08,2.29,2.29,0,0,0,1.26.48l1.06.07a.47.47,0,0,1,.46.54c0,.32-.19.49-.57.49l-4.11-.15-3.42.15c-.38,0-.57-.17-.57-.49a.48.48,0,0,1,.46-.54l.46-.07c1-.18,1.52-.7,1.52-1.56V558.06a4.86,4.86,0,0,0-1.33-3.64,5,5,0,0,0-3.67-1.3,5.08,5.08,0,0,0-4,1.92,5.86,5.86,0,0,0-1.65,3.78v9.39c0,.91.5,1.43,1.52,1.56l.57.07a.47.47,0,0,1,.45.54c0,.32-.19.49-.57.49l-3.53-.15-4.11.15c-.38,0-.57-.17-.57-.49a.48.48,0,0,1,.46-.54l1.06-.07a2.29,2.29,0,0,0,1.26-.48,1.29,1.29,0,0,0,.49-1.08V543.32a1.39,1.39,0,0,0-.32-1.05,1.59,1.59,0,0,0-1.05-.28H331.4a.43.43,0,0,1-.49-.49.52.52,0,0,1,.49-.57l4.94-.61Z"/><path class="cls-3" d="M360.66,551.3c.41,0,.61.29.61.87v2.06c0,.12.05.19.15.19a.5.5,0,0,0,.34-.23,8.51,8.51,0,0,1,2.42-2,5.61,5.61,0,0,1,2.73-.89,4.92,4.92,0,0,1,1.84.27c.44.17.65.38.65.6v2.93c0,.38-.18.57-.53.57-.2,0-.47-.19-.8-.57a3.41,3.41,0,0,0-2.75-1.29,3.47,3.47,0,0,0-2.87,1.59,7.64,7.64,0,0,0-1.18,4.6v8.21c0,.91.67,1.42,2,1.52l1.56.11a.47.47,0,0,1,.46.54c0,.32-.19.49-.57.49l-5-.15-4.1.15c-.38,0-.57-.17-.57-.49a.47.47,0,0,1,.45-.54l1.07-.07a2.29,2.29,0,0,0,1.25-.48,1.3,1.3,0,0,0,.5-1.08V554.3a1.32,1.32,0,0,0-.33-1,1.54,1.54,0,0,0-1-.29h-1.29a.44.44,0,0,1-.5-.49.52.52,0,0,1,.5-.57l4.93-.61Z"/><path class="cls-3" d="M378.94,569.84a.48.48,0,0,1,.46.54c0,.32-.19.49-.57.49l-3.62-.15-4.1.15c-.38,0-.57-.17-.57-.49a.47.47,0,0,1,.46-.54l1.06-.07a2.29,2.29,0,0,0,1.26-.48,1.32,1.32,0,0,0,.49-1.08V554.3a1.36,1.36,0,0,0-.32-1,1.59,1.59,0,0,0-1.05-.29h-1.29a.43.43,0,0,1-.49-.49.52.52,0,0,1,.49-.57l4.94-.61c.45,0,.68.24.68.87v16c0,.91.51,1.43,1.52,1.56Zm-5.26-24.28a1.77,1.77,0,0,1,0-2.51,1.74,1.74,0,0,1,1.27-.49,1.81,1.81,0,0,1,1.29.49,1.75,1.75,0,0,1,0,2.51,1.81,1.81,0,0,1-1.29.5A1.75,1.75,0,0,1,373.68,545.56Z"/><path class="cls-3" d="M395.81,565.82a4.6,4.6,0,0,1-1.92,3.85,7.46,7.46,0,0,1-4.67,1.47,13.85,13.85,0,0,1-4.58-.65q-1.83-.65-1.83-1.44v-3.31c0-.46.18-.68.52-.68s.57.22.7.68c.79,2.61,2.43,3.91,4.94,3.91a4.44,4.44,0,0,0,2.81-.85,2.61,2.61,0,0,0,1.1-2.15,2.9,2.9,0,0,0-1-2.22,10.3,10.3,0,0,0-2.49-1.62c-1-.45-1.95-.93-2.93-1.44a8.25,8.25,0,0,1-2.48-2,4.07,4.07,0,0,1-1-2.75,4.81,4.81,0,0,1,1.78-3.84,7.13,7.13,0,0,1,4.75-1.52,9.51,9.51,0,0,1,3.61.66c1.09.45,1.64.92,1.64,1.43v2.93c0,.45-.18.68-.53.68s-.59-.23-.69-.68q-1-3.54-4.29-3.54a4.21,4.21,0,0,0-2.51.74,2.34,2.34,0,0,0-1,2,2.85,2.85,0,0,0,1,2.18,10,10,0,0,0,2.55,1.66c1,.47,2,1,3,1.48a8.13,8.13,0,0,1,2.53,2A4.54,4.54,0,0,1,395.81,565.82Z"/><path class="cls-3" d="M411.2,568.89c0,.49-.51,1-1.54,1.49a7,7,0,0,1-3.1.76,5.15,5.15,0,0,1-4-1.32c-.79-.87-1.19-2.33-1.19-4.38V554c0-.28-.17-.42-.5-.42h-2.32a.51.51,0,0,1-.34-.14.3.3,0,0,1-.11-.32l.11-1c.05-.3.21-.45.46-.45H401c.23,0,.34-.14.34-.42l.34-5.28q0-.72.72-.72a.73.73,0,0,1,.73.57l1.25,5.35a.56.56,0,0,0,.57.5h5.66q.54,0,.42.45l-.11,1c0,.31-.21.46-.46.46h-5.78q-.3,0-.3.42v11.78c0,2.38.93,3.57,2.77,3.57a6.84,6.84,0,0,0,2.47-.46l1.22-.45C411.07,568.48,411.2,568.61,411.2,568.89Z"/><path class="cls-3" d="M422.81,551.3a9.11,9.11,0,0,1,6.95,2.74,11.24,11.24,0,0,1,0,14.38,10.39,10.39,0,0,1-14,0,11.08,11.08,0,0,1,.06-14.33A9.26,9.26,0,0,1,422.81,551.3Zm5,4.64a5.28,5.28,0,0,0-1.92-2.3,5.43,5.43,0,0,0-3.1-.86,5.51,5.51,0,0,0-4.71,2.09,8.92,8.92,0,0,0-1.56,5.47,14.82,14.82,0,0,0,1.22,6.2,5.4,5.4,0,0,0,1.92,2.26,5.25,5.25,0,0,0,3,.85,5.52,5.52,0,0,0,4.77-2.09A9.16,9.16,0,0,0,429,562,14.75,14.75,0,0,0,427.81,555.94Z"/><path class="cls-3" d="M440.27,551.3c.4,0,.61.29.61.87v.73c0,.3.11.36.32.19a9,9,0,0,1,.89-.63,8.45,8.45,0,0,1,1.75-.76,7.33,7.33,0,0,1,2.4-.4,9.48,9.48,0,0,1,7.08,2.68,10.94,10.94,0,0,1-.13,14.4,9.22,9.22,0,0,1-6.76,2.76,8.4,8.4,0,0,1-5.1-1.6c-.12-.1-.23-.11-.32,0a.47.47,0,0,0-.13.38v9.73c0,.91.5,1.43,1.52,1.56l.64.07a.47.47,0,0,1,.46.54c0,.32-.19.49-.57.49l-3.61-.15-4.1.15c-.38,0-.57-.17-.57-.49a.47.47,0,0,1,.45-.54l1.07-.07a2.29,2.29,0,0,0,1.25-.48,1.29,1.29,0,0,0,.49-1.08V554.3a1.32,1.32,0,0,0-.32-1,1.54,1.54,0,0,0-1-.29h-1.3a.43.43,0,0,1-.49-.49.52.52,0,0,1,.49-.57l4.94-.61Zm12.39,11.13q0-4.56-1.83-7.06a5.42,5.42,0,0,0-4.54-2.51,5.27,5.27,0,0,0-4.06,1.46,4.53,4.53,0,0,0-1.35,3.1v7.64a4.17,4.17,0,0,0,1.61,3.21,5.36,5.36,0,0,0,3.56,1.38,6.29,6.29,0,0,0,4.82-1.9A7.46,7.46,0,0,0,452.66,562.43Z"/><path class="cls-3" d="M464.25,540.32c.4,0,.61.29.61.87v12.92c0,.13,0,.19.13.19s.21-.07.36-.23a7,7,0,0,1,5.76-2.77,7.45,7.45,0,0,1,5.45,1.88,7.27,7.27,0,0,1,1.9,5.42v9.61a1.29,1.29,0,0,0,.49,1.08,2.29,2.29,0,0,0,1.26.48l1.06.07a.47.47,0,0,1,.46.54c0,.32-.19.49-.57.49l-4.11-.15-3.42.15c-.38,0-.57-.17-.57-.49a.47.47,0,0,1,.46-.54l.46-.07c1-.18,1.52-.7,1.52-1.56V558.06a4.86,4.86,0,0,0-1.33-3.64,5,5,0,0,0-3.67-1.3,5.08,5.08,0,0,0-4,1.92,5.86,5.86,0,0,0-1.65,3.78v9.39c0,.91.5,1.43,1.52,1.56l.57.07a.47.47,0,0,1,.45.54c0,.32-.19.49-.57.49l-3.53-.15-4.11.15c-.38,0-.57-.17-.57-.49a.48.48,0,0,1,.46-.54l1.06-.07a2.29,2.29,0,0,0,1.26-.48,1.29,1.29,0,0,0,.49-1.08V543.32a1.39,1.39,0,0,0-.32-1.05,1.59,1.59,0,0,0-1.05-.28h-1.29a.43.43,0,0,1-.49-.49.52.52,0,0,1,.49-.57l4.94-.61Z"/><path class="cls-3" d="M501,558.71c0,1.52-.68,2.28-2.05,2.28H488c-.31,0-.46.21-.46.65a7.88,7.88,0,0,0,2,5.52,6.62,6.62,0,0,0,5,2A7,7,0,0,0,499,568a.62.62,0,0,1,.91,0c.28.28.24.59-.12,1a7.87,7.87,0,0,1-5.85,2.13,9.83,9.83,0,0,1-7.31-2.68A10.2,10.2,0,0,1,484,561a9.78,9.78,0,0,1,2.62-6.78,8.63,8.63,0,0,1,12.12-.8A6.94,6.94,0,0,1,501,558.71Zm-3.42-.49a6.09,6.09,0,0,0-1.23-3.86,4.16,4.16,0,0,0-3.46-1.58,4.8,4.8,0,0,0-3.78,1.83,6.22,6.22,0,0,0-1.56,4.18c0,.4.17.6.49.6h8.36A1,1,0,0,0,497.57,558.22Z"/><path class="cls-3" d="M509.09,551.3q.6,0,.6.87v2.06c0,.12.05.19.16.19s.21-.08.34-.23a8.45,8.45,0,0,1,2.41-2,5.68,5.68,0,0,1,2.74-.89,5,5,0,0,1,1.84.27c.43.17.65.38.65.6v2.93q0,.57-.54.57c-.2,0-.46-.19-.79-.57a3.41,3.41,0,0,0-2.76-1.29,3.48,3.48,0,0,0-2.87,1.59,7.71,7.71,0,0,0-1.18,4.6v8.21c0,.91.68,1.42,2,1.52l1.56.11a.47.47,0,0,1,.45.54c0,.32-.19.49-.57.49l-5-.15-4.11.15c-.38,0-.57-.17-.57-.49a.47.47,0,0,1,.46-.54l1.06-.07a2.29,2.29,0,0,0,1.26-.48,1.29,1.29,0,0,0,.49-1.08V554.3a1.36,1.36,0,0,0-.32-1,1.59,1.59,0,0,0-1.05-.29h-1.29a.43.43,0,0,1-.49-.49.52.52,0,0,1,.49-.57l4.94-.61Z"/><path class="cls-3" d="M539.18,544.12a10.46,10.46,0,0,1,6.82,2,6.54,6.54,0,0,1,2.45,5.34,7.18,7.18,0,0,1-2.39,5.53,9.12,9.12,0,0,1-6.42,2.2h-4.49c-.38,0-.57.16-.57.46v8.55a1.37,1.37,0,0,0,.5,1.1,2,2,0,0,0,1.21.46l1.6.07c.28,0,.42.17.42.52a.46.46,0,0,1-.53.51l-4.75-.15-4.22.15c-.38,0-.57-.15-.57-.46s.15-.54.45-.57l1.1-.07q1.56-.12,1.56-1.56V546.63c0-.92-.58-1.42-1.74-1.52L528.5,545a.45.45,0,0,1-.42-.49.47.47,0,0,1,.54-.53l5.24.15Zm4.07,11.68a5.62,5.62,0,0,0,1.71-4.23,5.44,5.44,0,0,0-1.71-4.18,6.84,6.84,0,0,0-4.87-1.6H536.1a1.35,1.35,0,0,0-1.52,1.52V557c0,.33.14.5.42.5h3.38A6.73,6.73,0,0,0,543.25,555.8Z"/><path class="cls-3" d="M561.17,551.3a9.13,9.13,0,0,1,7,2.74,11.27,11.27,0,0,1,0,14.38,10.39,10.39,0,0,1-14,0,11.06,11.06,0,0,1,0-14.33A9.28,9.28,0,0,1,561.17,551.3Zm5,4.64a5.28,5.28,0,0,0-1.92-2.3,5.42,5.42,0,0,0-3.09-.86,5.51,5.51,0,0,0-4.72,2.09,8.91,8.91,0,0,0-1.55,5.47,15,15,0,0,0,1.21,6.2A5.4,5.4,0,0,0,558,568.8a5.3,5.3,0,0,0,3,.85,5.52,5.52,0,0,0,4.77-2.09,9.1,9.1,0,0,0,1.54-5.54A14.59,14.59,0,0,0,566.16,555.94Z"/><path class="cls-3" d="M584.19,551.3a9.15,9.15,0,0,1,7,2.74,11.27,11.27,0,0,1,0,14.38,10.4,10.4,0,0,1-14,0,11.08,11.08,0,0,1,.06-14.33A9.26,9.26,0,0,1,584.19,551.3Zm5,4.64a5.28,5.28,0,0,0-1.92-2.3,5.43,5.43,0,0,0-3.1-.86,5.51,5.51,0,0,0-4.71,2.09,8.92,8.92,0,0,0-1.56,5.47,15,15,0,0,0,1.22,6.2A5.4,5.4,0,0,0,581,568.8a5.28,5.28,0,0,0,3,.85,5.52,5.52,0,0,0,4.77-2.09,9.16,9.16,0,0,0,1.54-5.54A14.75,14.75,0,0,0,589.19,555.94Z"/><path class="cls-3" d="M615.48,551.57c.33,0,.5.15.5.45a.47.47,0,0,1-.42.53l-.72.12a2.16,2.16,0,0,0-1.6,1.44l-6.8,16.68a.73.73,0,0,1-1.25,0L598.38,554a2,2,0,0,0-1.55-1.33l-.73-.12a.47.47,0,0,1-.41-.53c0-.3.17-.45.53-.45l3.76.15,3.65-.15c.43,0,.64.15.64.45a.49.49,0,0,1-.49.53l-.8.08c-.91.08-1.37.4-1.37,1a1,1,0,0,0,.08.45l4.64,12.24c0,.13.12.19.21.19a.23.23,0,0,0,.2-.15l4.83-12.28a1.57,1.57,0,0,0,.15-.64c0-.46-.39-.72-1.18-.8l-.76-.08a.48.48,0,0,1-.45-.53c0-.3.18-.45.53-.45l2.89.15Z"/><path class="cls-3" d="M634.9,558.71c0,1.52-.68,2.28-2,2.28H621.91c-.31,0-.46.21-.46.65a7.88,7.88,0,0,0,2,5.52,6.62,6.62,0,0,0,5,2,7,7,0,0,0,4.47-1.18.62.62,0,0,1,.91,0c.28.28.24.59-.12,1a7.87,7.87,0,0,1-5.85,2.13,9.83,9.83,0,0,1-7.31-2.68,10.2,10.2,0,0,1-2.64-7.47,9.78,9.78,0,0,1,2.62-6.78,8.63,8.63,0,0,1,12.12-.8A6.94,6.94,0,0,1,634.9,558.71Zm-3.42-.49a6.09,6.09,0,0,0-1.23-3.86,4.16,4.16,0,0,0-3.46-1.58,4.8,4.8,0,0,0-3.78,1.83,6.22,6.22,0,0,0-1.56,4.18c0,.4.17.6.49.6h8.36A1,1,0,0,0,631.48,558.22Z"/><path class="cls-3" d="M652.31,553.5c0-.48-.35-.77-1-.87l-.68-.08a.48.48,0,0,1-.46-.53c0-.3.18-.45.53-.45l3,.15,2.73-.15c.33,0,.5.15.5.45a.47.47,0,0,1-.42.53l-.72.12a2.2,2.2,0,0,0-1.79,1.48L645.81,573q-2.62,5.92-5.32,7.68a2.11,2.11,0,0,1-.88.38.52.52,0,0,1-.34-.08l-1.14-1.44A.73.73,0,0,1,638,579a.48.48,0,0,1,.23-.42,16.56,16.56,0,0,0,1.82-1,11.53,11.53,0,0,0,1.6-1.34c1.11-1.12,2.42-3.37,3.91-6.77a.82.82,0,0,0,.12-.45,1.06,1.06,0,0,0-.12-.5l-6-14.51a2.26,2.26,0,0,0-1.75-1.37l-.72-.12a.47.47,0,0,1-.42-.53c0-.3.18-.45.53-.45l3.76.15,3.77-.15c.43,0,.64.15.64.45a.49.49,0,0,1-.49.53l-.8.08a1.28,1.28,0,0,0-1,.46.92.92,0,0,0-.07.95l4.29,11.21a.2.2,0,0,0,.17.09c.09,0,.16,0,.21-.17L652.19,554A1.52,1.52,0,0,0,652.31,553.5Z"/><path class="cls-3" d="M182.63,592.23v20.59a1.65,1.65,0,0,0,.52,1.27,1.89,1.89,0,0,0,1.35.48H190a6,6,0,0,0,3.45-1,4.85,4.85,0,0,0,2-2.83.77.77,0,0,1,.8-.61c.4,0,.58.23.53.69l-.61,3.95a1.74,1.74,0,0,1-.53,1.08,1.64,1.64,0,0,1-1.18.44H181l-4.29.15c-.36,0-.53-.17-.53-.51s.14-.52.41-.52l1.11-.07a2.29,2.29,0,0,0,1.25-.48,1.29,1.29,0,0,0,.49-1.08V592.23c0-.92-.58-1.42-1.74-1.52l-1.11-.12a.45.45,0,0,1-.41-.49.46.46,0,0,1,.53-.53l4.29.15,3.76-.15q.57,0,.57.45c0,.36-.16.55-.49.57l-.65.12C183.14,590.88,182.63,591.39,182.63,592.23Z"/><path class="cls-3" d="M206.73,615.44a.47.47,0,0,1,.45.54c0,.32-.19.49-.57.49l-3.61-.15-4.1.15c-.38,0-.57-.17-.57-.49a.47.47,0,0,1,.45-.54l1.07-.07a2.29,2.29,0,0,0,1.25-.48,1.3,1.3,0,0,0,.5-1.08V599.9a1.33,1.33,0,0,0-.33-1,1.54,1.54,0,0,0-1-.29h-1.29a.44.44,0,0,1-.5-.49.52.52,0,0,1,.5-.57l4.94-.61c.45,0,.68.24.68.87v16c0,.91.51,1.43,1.52,1.56Zm-5.27-24.28a1.8,1.8,0,0,1,0-2.51,1.78,1.78,0,0,1,1.28-.49,1.84,1.84,0,0,1,1.29.49,1.75,1.75,0,0,1,0,2.51,1.85,1.85,0,0,1-1.29.5A1.79,1.79,0,0,1,201.46,591.16Z"/><path class="cls-3" d="M221,596.9a8.26,8.26,0,0,1,6.16,2.75,10.53,10.53,0,0,1-.25,14.18,9.29,9.29,0,0,1-6.86,2.91,11.16,11.16,0,0,1-5.05-1.07,2.6,2.6,0,0,0-1-.34,1.49,1.49,0,0,0-1.25.87q-.22.54-.57.54c-.48,0-.7-.23-.65-.69a22.38,22.38,0,0,0,.19-2.24V588.92a1.37,1.37,0,0,0-.32-1,1.43,1.43,0,0,0-1-.3H209a.43.43,0,0,1-.49-.49.52.52,0,0,1,.49-.57l4.91-.61h.19c.45,0,.68.29.68.87l-.23,8.67v2.66c0,.22,0,.37.15.43a.19.19,0,0,0,.27,0A10.64,10.64,0,0,1,221,596.9ZM226.45,608q0-4.49-1.77-6.92a5.69,5.69,0,0,0-4.86-2.43,6.26,6.26,0,0,0-4.77,1.75,1.05,1.05,0,0,0-.38.76v9.8a3.83,3.83,0,0,0,1.52,3.08,5.3,5.3,0,0,0,3.49,1.25,6.33,6.33,0,0,0,4.94-2A7.54,7.54,0,0,0,226.45,608Z"/><path class="cls-3" d="M238.08,596.9q.6,0,.6.87v2.06c0,.12,0,.19.16.19s.21-.08.34-.23a8.32,8.32,0,0,1,2.41-2,5.68,5.68,0,0,1,2.74-.89,5,5,0,0,1,1.84.27c.43.17.65.38.65.6v2.93q0,.57-.54.57c-.2,0-.47-.19-.79-.57a3.41,3.41,0,0,0-2.76-1.29,3.48,3.48,0,0,0-2.87,1.59,7.71,7.71,0,0,0-1.18,4.6v8.21c0,.91.67,1.42,2,1.52l1.56.11a.47.47,0,0,1,.45.54c0,.32-.19.49-.57.49l-5-.15-4.11.15c-.38,0-.57-.17-.57-.49a.47.47,0,0,1,.46-.54l1.06-.07a2.29,2.29,0,0,0,1.26-.48,1.32,1.32,0,0,0,.49-1.08V599.9a1.37,1.37,0,0,0-.32-1,1.59,1.59,0,0,0-1.05-.29h-1.29a.43.43,0,0,1-.49-.49.52.52,0,0,1,.49-.57l4.94-.61Z"/><path class="cls-3" d="M266.08,604.31c0,1.52-.68,2.28-2.05,2.28H253.09c-.31,0-.46.21-.46.65a7.88,7.88,0,0,0,2,5.52,6.62,6.62,0,0,0,5,2,7.07,7.07,0,0,0,4.47-1.18.62.62,0,0,1,.91,0c.28.28.24.59-.12,1a7.91,7.91,0,0,1-5.85,2.13,9.83,9.83,0,0,1-7.31-2.68,10.2,10.2,0,0,1-2.64-7.47,9.78,9.78,0,0,1,2.62-6.78,8.63,8.63,0,0,1,12.12-.8A7,7,0,0,1,266.08,604.31Zm-3.42-.49a6.09,6.09,0,0,0-1.23-3.86,4.16,4.16,0,0,0-3.46-1.58,4.8,4.8,0,0,0-3.78,1.83,6.22,6.22,0,0,0-1.56,4.18c0,.4.16.6.49.6h8.36A1,1,0,0,0,262.66,603.82Z"/><path class="cls-3" d="M281.47,614.49c0,.49-.51,1-1.54,1.49a7,7,0,0,1-3.1.76,5.16,5.16,0,0,1-4-1.32c-.79-.87-1.19-2.33-1.19-4.38v-11.4c0-.28-.17-.42-.5-.42h-2.32a.51.51,0,0,1-.34-.14.3.3,0,0,1-.11-.32l.11-1c.05-.3.21-.45.46-.45h2.28c.23,0,.34-.14.34-.42l.34-5.28q0-.72.72-.72a.73.73,0,0,1,.73.57l1.25,5.35a.56.56,0,0,0,.57.5h5.66q.54,0,.42.45l-.11,1c-.05.31-.21.46-.46.46h-5.77c-.21,0-.31.14-.31.42v11.78c0,2.38.93,3.57,2.77,3.57a6.93,6.93,0,0,0,2.48-.46l1.21-.45C281.34,614.08,281.47,614.21,281.47,614.49Z"/><path class="cls-3" d="M295.19,614.49c0,.49-.51,1-1.54,1.49a7,7,0,0,1-3.1.76,5.15,5.15,0,0,1-4-1.32q-1.2-1.3-1.2-4.38v-11.4c0-.28-.16-.42-.49-.42h-2.32a.51.51,0,0,1-.34-.14.3.3,0,0,1-.11-.32l.11-1c0-.3.2-.45.46-.45H285c.22,0,.34-.14.34-.42l.34-5.28q0-.72.72-.72a.71.71,0,0,1,.72.57l1.26,5.35a.55.55,0,0,0,.57.5h5.66c.36,0,.49.15.42.45l-.12,1c-.05.31-.2.46-.45.46h-5.78q-.3,0-.3.42v11.78q0,3.57,2.77,3.57a6.84,6.84,0,0,0,2.47-.46l1.22-.45C295.06,614.08,295.19,614.21,295.19,614.49Z"/><path class="cls-3" d="M306.8,596.9a9.11,9.11,0,0,1,6.95,2.74,11.27,11.27,0,0,1,0,14.38,10.39,10.39,0,0,1-14,0,11.08,11.08,0,0,1,.06-14.33A9.26,9.26,0,0,1,306.8,596.9Zm5,4.64a5.32,5.32,0,0,0-1.91-2.3,6.22,6.22,0,0,0-7.81,1.23,8.92,8.92,0,0,0-1.56,5.47,15,15,0,0,0,1.21,6.2,5.48,5.48,0,0,0,1.92,2.26,5.31,5.31,0,0,0,3,.85,5.49,5.49,0,0,0,4.76-2.09,9.1,9.1,0,0,0,1.54-5.54A14.59,14.59,0,0,0,311.79,601.54Z"/><path class="cls-3" d="M339.5,596.9a8.25,8.25,0,0,1,6.15,2.75,10.55,10.55,0,0,1-.24,14.18,9.31,9.31,0,0,1-6.86,2.91,11.18,11.18,0,0,1-5.06-1.07,2.57,2.57,0,0,0-1-.34,1.51,1.51,0,0,0-1.26.87q-.22.54-.57.54c-.48,0-.69-.23-.64-.69.12-1.09.19-1.84.19-2.24V588.92a1.37,1.37,0,0,0-.33-1,1.42,1.42,0,0,0-1-.3h-1.33a.44.44,0,0,1-.5-.49.52.52,0,0,1,.5-.57l4.9-.61h.19c.45,0,.68.29.68.87l-.23,8.67v2.66c0,.22.05.37.16.43a.18.18,0,0,0,.26,0A10.65,10.65,0,0,1,339.5,596.9ZM344.93,608q0-4.49-1.77-6.92a5.67,5.67,0,0,0-4.86-2.43,6.26,6.26,0,0,0-4.77,1.75,1.09,1.09,0,0,0-.38.76v9.8a3.86,3.86,0,0,0,1.52,3.08,5.31,5.31,0,0,0,3.5,1.25,6.36,6.36,0,0,0,4.94-2A7.58,7.58,0,0,0,344.93,608Z"/><path class="cls-3" d="M365.87,599.1c0-.48-.35-.77-1-.87l-.68-.08a.48.48,0,0,1-.46-.53c0-.3.18-.45.53-.45l3,.15,2.73-.15c.33,0,.5.15.5.45a.47.47,0,0,1-.42.53l-.72.12a2.21,2.21,0,0,0-1.79,1.48l-8.13,18.81q-2.62,5.93-5.32,7.68a2.11,2.11,0,0,1-.88.38.52.52,0,0,1-.34-.08l-1.14-1.44a.73.73,0,0,1-.15-.46.48.48,0,0,1,.23-.42,16.56,16.56,0,0,0,1.82-1,11.53,11.53,0,0,0,1.6-1.34c1.11-1.12,2.42-3.37,3.91-6.77a.82.82,0,0,0,.12-.45,1.06,1.06,0,0,0-.12-.5l-6-14.51a2.26,2.26,0,0,0-1.75-1.37l-.72-.12a.47.47,0,0,1-.42-.53c0-.3.18-.45.53-.45l3.76.15,3.77-.15c.43,0,.64.15.64.45a.49.49,0,0,1-.49.53l-.8.08a1.28,1.28,0,0,0-1,.46.92.92,0,0,0-.07.95l4.29,11.21a.2.2,0,0,0,.17.09c.09,0,.16,0,.21-.17l4.56-11.13A1.52,1.52,0,0,0,365.87,599.1Z"/><path class="cls-3" d="M399.93,603.87a6.66,6.66,0,0,1,1.89,4.92,7.23,7.23,0,0,1-2.28,5.29,7.8,7.8,0,0,1-5.67,2.24h-8.66l-4.29.15c-.36,0-.54-.2-.54-.61a.37.37,0,0,1,.42-.42l1.1-.07c1.17-.15,1.75-.67,1.75-1.56V592.23c0-.92-.58-1.42-1.75-1.52l-1.1-.12q-.42-.08-.42-.45,0-.57.54-.57l4.75.15H393a7,7,0,0,1,4.94,1.82,5.66,5.66,0,0,1,2,4.26,5.51,5.51,0,0,1-1.29,3.85,6.65,6.65,0,0,1-3,2v.08A7.23,7.23,0,0,1,399.93,603.87Zm-4.78-4.2a4.58,4.58,0,0,0,1.42-3.53,4.48,4.48,0,0,0-1.4-3.48,5.29,5.29,0,0,0-3.69-1.27h-3.19a1.38,1.38,0,0,0-1,.4,1.13,1.13,0,0,0-.44.82v7.63a.67.67,0,0,0,.76.76h3.84A5.16,5.16,0,0,0,395.15,599.67Zm1.52,13.3a5.73,5.73,0,0,0,1.76-4.35,5.62,5.62,0,0,0-1.76-4.31,6.38,6.38,0,0,0-4.51-1.63h-4.63c-.43,0-.65.22-.65.68v9.77a1.35,1.35,0,0,0,1.52,1.52h3.76A6.28,6.28,0,0,0,396.67,613Z"/><path class="cls-3" d="M422.41,604.31c0,1.52-.68,2.28-2.05,2.28H409.41c-.3,0-.45.21-.45.65a7.88,7.88,0,0,0,2,5.52,6.62,6.62,0,0,0,5,2,7,7,0,0,0,4.46-1.18.63.63,0,0,1,.92,0c.27.28.24.59-.12,1a7.91,7.91,0,0,1-5.85,2.13,9.81,9.81,0,0,1-7.31-2.68,10.16,10.16,0,0,1-2.65-7.47,9.79,9.79,0,0,1,2.63-6.78,8.12,8.12,0,0,1,6.25-2.91,8.21,8.21,0,0,1,5.87,2.11A7,7,0,0,1,422.41,604.31Zm-3.42-.49a6.09,6.09,0,0,0-1.23-3.86,4.16,4.16,0,0,0-3.46-1.58,4.78,4.78,0,0,0-3.78,1.83,6.22,6.22,0,0,0-1.56,4.18c0,.4.16.6.49.6h8.36A1,1,0,0,0,419,603.82Z"/><path class="cls-3" d="M443.16,616.13c0,.4-.46.61-1.37.61a5.13,5.13,0,0,1-4-1.87c-.18-.17-.31-.26-.4-.26a.73.73,0,0,0-.4.23,8.89,8.89,0,0,1-5.55,1.9,5.8,5.8,0,0,1-3.8-1.35,4.3,4.3,0,0,1-1.63-3.48,4.47,4.47,0,0,1,2.36-4.1,19.34,19.34,0,0,1,6.53-1.9l1.45-.27a.48.48,0,0,0,.49-.53v-3.5a3.1,3.1,0,0,0-1.05-2.47,4,4,0,0,0-2.77-.91,5,5,0,0,0-3.11,1.06,4.74,4.74,0,0,0-1.77,3,.61.61,0,0,1-.63.57q-.51,0-.51-.57v-2.85a1.09,1.09,0,0,1,.42-.95,9.24,9.24,0,0,1,5.77-1.56q3.76,0,5.28,1.63a5.93,5.93,0,0,1,1.52,4.22V612.9a2.61,2.61,0,0,0,.78,2,2.55,2.55,0,0,0,1.85.76C443,615.63,443.16,615.8,443.16,616.13Zm-6.39-3.54v-4.75c0-.38-.16-.57-.49-.57h-.11q-6.81.84-6.81,4.18a3.08,3.08,0,0,0,1,2.45,3.39,3.39,0,0,0,2.3.9,4.83,4.83,0,0,0,2.24-.5,4.74,4.74,0,0,0,1.41-1A1.4,1.4,0,0,0,436.77,612.59Z"/><path class="cls-3" d="M468.12,589.3a18.25,18.25,0,0,1,5.8.87c1.73.59,2.6,1.16,2.6,1.71v4.34a.94.94,0,0,1-.17.51.52.52,0,0,1-.44.25c-.43,0-.71-.26-.83-.76a7.27,7.27,0,0,0-2.55-4,6.94,6.94,0,0,0-4.41-1.45,9.49,9.49,0,0,0-7.5,3.16,11.63,11.63,0,0,0-2.79,8,15.6,15.6,0,0,0,1.25,6.16,12.48,12.48,0,0,0,3.59,4.88,8,8,0,0,0,5.17,1.92,9.19,9.19,0,0,0,4.79-1.16c1.3-.77,1.95-1.59,1.95-2.45v-4.71c0-1-.57-1.47-1.71-1.52l-2.05-.11c-.28,0-.42-.18-.42-.52a.45.45,0,0,1,.5-.51l5.17.15,3.76-.15c.35,0,.53.15.53.46s-.15.54-.46.57l-.64.11c-1,.18-1.52.68-1.52,1.52v7.33l.23,2.13q.07.69-.57.69a.8.8,0,0,1-.69-.5,2.07,2.07,0,0,0-2-1.37,3.14,3.14,0,0,0-1.14.46,13.78,13.78,0,0,1-15.7-2.51,13.79,13.79,0,0,1-3.68-9.82,13.36,13.36,0,0,1,3.87-9.81A13.62,13.62,0,0,1,468.12,589.3Z"/><path class="cls-3" d="M492.69,596.9a9.11,9.11,0,0,1,6.95,2.74,11.24,11.24,0,0,1,0,14.38,10.39,10.39,0,0,1-14,0,11.08,11.08,0,0,1,.06-14.33A9.26,9.26,0,0,1,492.69,596.9Zm5,4.64a5.28,5.28,0,0,0-1.92-2.3,5.43,5.43,0,0,0-3.1-.86,5.51,5.51,0,0,0-4.71,2.09,8.92,8.92,0,0,0-1.56,5.47,15,15,0,0,0,1.22,6.2,5.4,5.4,0,0,0,1.92,2.26,5.25,5.25,0,0,0,3,.85,5.52,5.52,0,0,0,4.77-2.09,9.16,9.16,0,0,0,1.54-5.54A14.75,14.75,0,0,0,497.69,601.54Z"/><path class="cls-3" d="M515.72,596.9a9.11,9.11,0,0,1,6.95,2.74,11.27,11.27,0,0,1,0,14.38,10.39,10.39,0,0,1-14,0,11.08,11.08,0,0,1,.06-14.33A9.26,9.26,0,0,1,515.72,596.9Zm5,4.64a5.32,5.32,0,0,0-1.91-2.3,6.22,6.22,0,0,0-7.81,1.23,8.92,8.92,0,0,0-1.56,5.47,15,15,0,0,0,1.21,6.2,5.48,5.48,0,0,0,1.92,2.26,5.3,5.3,0,0,0,3,.85,5.5,5.5,0,0,0,4.77-2.09,9.1,9.1,0,0,0,1.54-5.54A14.59,14.59,0,0,0,520.71,601.54Z"/><path class="cls-3" d="M546.86,585.92c.33,0,.49.26.49.8v26.22a2.66,2.66,0,0,0,.74,1.93,2.19,2.19,0,0,0,1.58.76c.56,0,.84.17.84.5s-.5.61-1.49.61a4.77,4.77,0,0,1-3.91-1.79q-.23-.3-.36-.3a3.32,3.32,0,0,0-.91.53,10.57,10.57,0,0,1-2.13,1,8.17,8.17,0,0,1-2.91.52,9.37,9.37,0,0,1-7.12-2.74,9.64,9.64,0,0,1-2.6-6.94,10,10,0,0,1,2.88-7.18,9.21,9.21,0,0,1,6.84-3,7.8,7.8,0,0,1,5.06,1.75.58.58,0,0,0,.34.11c.13,0,.19-.16.19-.49V589a1.39,1.39,0,0,0-.32-1.05,1.59,1.59,0,0,0-1.05-.28h-1.29a.45.45,0,0,1-.34-.17.58.58,0,0,1-.16-.36.49.49,0,0,1,.5-.57l5-.61Zm-2.47,25.27v-8.4a3.58,3.58,0,0,0-1.6-2.93,6.18,6.18,0,0,0-3.87-1.21,6.09,6.09,0,0,0-4.79,1.92,7.56,7.56,0,0,0-1.71,5.22,11.38,11.38,0,0,0,1.84,6.9,5.65,5.65,0,0,0,4.73,2.49,6.22,6.22,0,0,0,3.73-1.22A3.44,3.44,0,0,0,544.39,611.19Z"/><path class="cls-3" d="M573.53,616.39a.73.73,0,0,1-1.25,0l-5.85-14.51c-.08-.13-.15-.19-.23-.19s-.3.11-.38.34l-5.59,14.36a.73.73,0,0,1-1.25,0l-5.36-16.79a1.83,1.83,0,0,0-1.56-1.33l-.72-.12a.47.47,0,0,1-.42-.53q0-.45.54-.45l3.68.15,3.65-.15c.43,0,.65.15.65.45s-.17.48-.5.53l-.8.08c-.88.08-1.33.44-1.33,1.1a1.31,1.31,0,0,0,0,.34l3.46,11.82c.05.1.11.15.19.15s.13-.07.15-.22L566,597.93c.13-.33.44-.5,1-.5s.82.17.95.5l5.47,13.45a.24.24,0,0,0,.19.11c.08,0,.13-.06.15-.19l3.69-11.63a2.26,2.26,0,0,0,.08-.41c0-.61-.4-1-1.18-1l-.69-.08a.48.48,0,0,1-.45-.53c0-.3.17-.45.53-.45l2.81.15,2.7-.15c.33,0,.49.15.49.45a.47.47,0,0,1-.41.53l-.73.12a1.94,1.94,0,0,0-1.59,1.44Z"/><path class="cls-3" d="M590.9,615.44a.48.48,0,0,1,.46.54c0,.32-.19.49-.57.49l-3.61-.15-4.11.15c-.38,0-.57-.17-.57-.49a.47.47,0,0,1,.46-.54l1.06-.07a2.29,2.29,0,0,0,1.26-.48,1.29,1.29,0,0,0,.49-1.08V599.9a1.37,1.37,0,0,0-.32-1,1.59,1.59,0,0,0-1.05-.29h-1.29a.43.43,0,0,1-.49-.49.52.52,0,0,1,.49-.57l4.94-.61c.46,0,.68.24.68.87v16c0,.91.51,1.43,1.52,1.56Zm-5.26-24.28a1.77,1.77,0,0,1,0-2.51,1.74,1.74,0,0,1,1.27-.49,1.81,1.81,0,0,1,1.29.49,1.75,1.75,0,0,1,0,2.51,1.81,1.81,0,0,1-1.29.5A1.75,1.75,0,0,1,585.64,591.16Z"/><path class="cls-3" d="M599.07,596.9c.4,0,.61.29.61.87v1.94c0,.13,0,.19.13.19s.21-.07.36-.23a7,7,0,0,1,5.76-2.77,7.44,7.44,0,0,1,5.45,1.88,7.27,7.27,0,0,1,1.9,5.42v9.61a1.24,1.24,0,0,0,.55,1.08,2.63,2.63,0,0,0,1.31.48l1,.07a.48.48,0,0,1,.46.54c0,.32-.19.49-.57.49l-4.07-.15-3.46.15c-.38,0-.57-.17-.57-.49a.47.47,0,0,1,.46-.54l.49-.07a1.46,1.46,0,0,0,1.41-1.56V603.66A4.86,4.86,0,0,0,609,600a5,5,0,0,0-3.67-1.3,5.08,5.08,0,0,0-4,1.92,5.86,5.86,0,0,0-1.65,3.78v9.39c0,.91.5,1.43,1.52,1.56l.64.07a.47.47,0,0,1,.46.54c0,.32-.19.49-.57.49l-3.61-.15-4.1.15c-.38,0-.57-.17-.57-.49a.47.47,0,0,1,.45-.54l1.07-.07a2.29,2.29,0,0,0,1.25-.48,1.29,1.29,0,0,0,.49-1.08V599.9a1.34,1.34,0,0,0-.32-1,1.56,1.56,0,0,0-1-.29h-1.3a.43.43,0,0,1-.49-.49.52.52,0,0,1,.49-.57l4.94-.61Z"/><path class="cls-3" d="M473.47,999.87a13.08,13.08,0,0,1,3.8,9.82,14.44,14.44,0,0,1-3.94,10.3,13.25,13.25,0,0,1-10.06,4.18h-6.88l-5,.2a.49.49,0,0,1-.56-.54c0-.36.15-.54.44-.54l1.16-.08a2.51,2.51,0,0,0,1.32-.5,1.41,1.41,0,0,0,.52-1.14V998.81c0-1-.61-1.5-1.84-1.6l-1.16-.12a.49.49,0,0,1-.44-.52.49.49,0,0,1,.56-.56l5,.16h6.88Q469.68,996.17,473.47,999.87Zm-2.32,2.3a8.61,8.61,0,0,0-3.24-3,9.53,9.53,0,0,0-4.68-1.12h-3.6a2.05,2.05,0,0,0-1.42.48,1.77,1.77,0,0,0-.54,1.4v20.6a1.75,1.75,0,0,0,.54,1.34,2,2,0,0,0,1.42.5h3.8a9.3,9.3,0,0,0,7.36-3.16,12,12,0,0,0,2.76-8.2A16,16,0,0,0,471.15,1002.17Z"/><path class="cls-3" d="M500.67,1005.85v14.68a2.73,2.73,0,0,0,.8,2.06,2.64,2.64,0,0,0,1.92.78q.6,0,.6.48c0,.5-.52.76-1.56.76a5.39,5.39,0,0,1-4.12-2,3.48,3.48,0,0,1-.24-.28l-.2-.28a.43.43,0,0,0-.34-.2,1,1,0,0,0-.54.32,9.09,9.09,0,0,1-6.18,2.4,7.67,7.67,0,0,1-5.54-2,7.51,7.51,0,0,1-2.08-5.68v-10.12a1.21,1.21,0,0,0-1.4-1.44h-1.36a.59.59,0,0,1-.38-.16.52.52,0,0,1-.18-.4c0-.32.18-.51.56-.56l5.28-.52h.2c.53,0,.8.21.8.64a2.22,2.22,0,0,1-.2.48,2.25,2.25,0,0,0-.2,1v11.72a5,5,0,0,0,1.54,3.9,5.64,5.64,0,0,0,4,1.42,5.34,5.34,0,0,0,4.08-1.8,5.84,5.84,0,0,0,1.66-4.08v-10.2a1.51,1.51,0,0,0-.34-1.12,1.48,1.48,0,0,0-1.06-.32h-1.76a.59.59,0,0,1-.38-.16.52.52,0,0,1-.18-.4c0-.32.18-.51.56-.56l5.6-.52h.2c.53,0,.8.21.8.64a3,3,0,0,1-.16.48A2.62,2.62,0,0,0,500.67,1005.85Z"/><path class="cls-3" d="M511.11,1003.73c.43,0,.64.3.64.92v2.16c0,.13.05.2.16.2s.22-.08.36-.24a8.61,8.61,0,0,1,2.54-2.1,5.87,5.87,0,0,1,2.88-.94,5.24,5.24,0,0,1,1.94.28c.45.18.68.4.68.64v3.08c0,.4-.19.6-.56.6-.21,0-.5-.2-.84-.6a3.57,3.57,0,0,0-2.9-1.36,3.65,3.65,0,0,0-3,1.68,8,8,0,0,0-1.24,4.84v8.64c0,1,.71,1.49,2.12,1.6l1.64.12c.32,0,.48.21.48.56s-.2.52-.6.52l-5.28-.16-4.32.16c-.4,0-.6-.18-.6-.52s.16-.54.48-.56l1.12-.08a2.51,2.51,0,0,0,1.32-.5,1.38,1.38,0,0,0,.52-1.14v-14.64a1.44,1.44,0,0,0-.34-1.1,1.64,1.64,0,0,0-1.1-.3h-1.36a.46.46,0,0,1-.52-.52.54.54,0,0,1,.52-.6l5.2-.64Z"/><path class="cls-3" d="M540.75,1024c0,.42-.48.64-1.44.64a5.38,5.38,0,0,1-4.2-2c-.19-.19-.33-.28-.42-.28a.76.76,0,0,0-.42.24,9.37,9.37,0,0,1-5.84,2,6.12,6.12,0,0,1-4-1.42,4.53,4.53,0,0,1-1.72-3.66,4.71,4.71,0,0,1,2.48-4.32,20.32,20.32,0,0,1,6.88-2l1.52-.28a.51.51,0,0,0,.52-.56v-3.68a3.28,3.28,0,0,0-1.1-2.6,4.3,4.3,0,0,0-2.92-1,5.21,5.21,0,0,0-3.28,1.12,4.92,4.92,0,0,0-1.86,3.12.64.64,0,0,1-.66.6q-.54,0-.54-.6v-3a1.13,1.13,0,0,1,.44-1,9.72,9.72,0,0,1,6.08-1.64q4,0,5.56,1.72a6.27,6.27,0,0,1,1.6,4.44v10.68a2.78,2.78,0,0,0,.82,2.08,2.68,2.68,0,0,0,1.94.8C540.56,1023.45,540.75,1023.62,540.75,1024Zm-6.72-3.72v-5c0-.4-.18-.6-.52-.6h-.12c-4.78.58-7.16,2.05-7.16,4.4a3.25,3.25,0,0,0,1.08,2.58,3.61,3.61,0,0,0,2.42.94,5.22,5.22,0,0,0,2.36-.52,5.28,5.28,0,0,0,1.48-1C533.87,1020.66,534,1020.41,534,1020.25Z"/><path class="cls-3" d="M555.55,1022.25q0,.75-1.62,1.56a7.36,7.36,0,0,1-3.26.8c-1.95,0-3.34-.46-4.18-1.38s-1.26-2.46-1.26-4.62v-12c0-.3-.18-.44-.52-.44h-2.44a.52.52,0,0,1-.36-.14.33.33,0,0,1-.12-.34l.12-1q.08-.48.48-.48h2.4c.24,0,.36-.15.36-.44l.36-5.56a.69.69,0,0,1,.76-.76.77.77,0,0,1,.76.6l1.32,5.64a.58.58,0,0,0,.6.52h6c.37,0,.52.16.44.48l-.12,1q-.09.48-.48.48h-6.08c-.22,0-.32.14-.32.44V1019c0,2.5,1,3.76,2.92,3.76a7.38,7.38,0,0,0,2.6-.48l1.28-.48C555.41,1021.81,555.55,1022,555.55,1022.25Z"/><path class="cls-3" d="M565.23,1023.25c.32,0,.48.21.48.56s-.2.52-.6.52l-3.8-.16-4.32.16c-.4,0-.6-.18-.6-.52s.16-.54.48-.56l1.12-.08a2.51,2.51,0,0,0,1.32-.5,1.41,1.41,0,0,0,.52-1.14v-14.64a1.44,1.44,0,0,0-.34-1.1,1.66,1.66,0,0,0-1.1-.3H557a.46.46,0,0,1-.52-.52.54.54,0,0,1,.52-.6l5.2-.64c.48-.06.72.25.72.92v16.88c0,1,.53,1.5,1.6,1.64Zm-5.54-25.56a1.76,1.76,0,0,1-.54-1.32,1.73,1.73,0,0,1,.54-1.32,1.83,1.83,0,0,1,1.34-.52,1.93,1.93,0,0,1,1.36.52,1.71,1.71,0,0,1,.56,1.32,1.74,1.74,0,0,1-.56,1.32,2,2,0,0,1-1.36.52A1.87,1.87,0,0,1,559.69,997.69Z"/><path class="cls-3" d="M579.29,1003.73a9.64,9.64,0,0,1,7.32,2.88,11.86,11.86,0,0,1,0,15.14,10.95,10.95,0,0,1-14.78,0,11.65,11.65,0,0,1,.06-15.08A9.72,9.72,0,0,1,579.29,1003.73Zm5.26,4.88a5.64,5.64,0,0,0-2-2.42,6.56,6.56,0,0,0-8.22,1.3,9.33,9.33,0,0,0-1.64,5.76,15.64,15.64,0,0,0,1.28,6.52,5.63,5.63,0,0,0,2,2.38,5.55,5.55,0,0,0,3.18.9,5.85,5.85,0,0,0,5-2.2,9.65,9.65,0,0,0,1.62-5.84A15.58,15.58,0,0,0,584.55,1008.61Z"/><path class="cls-3" d="M598.07,1003.73c.42,0,.64.3.64.92v2c0,.13,0,.2.14.2a.67.67,0,0,0,.38-.24,7.35,7.35,0,0,1,6.06-2.92,7.83,7.83,0,0,1,5.74,2,7.68,7.68,0,0,1,2,5.7v10.12a1.33,1.33,0,0,0,.58,1.14,2.79,2.79,0,0,0,1.38.5l1.08.08c.32,0,.48.21.48.56s-.2.52-.6.52l-4.28-.16-3.64.16c-.4,0-.6-.18-.6-.52s.16-.54.48-.56l.52-.08a1.54,1.54,0,0,0,1.48-1.64v-10.68a5.1,5.1,0,0,0-1.4-3.84,5.71,5.71,0,0,0-8.06.66,6.14,6.14,0,0,0-1.74,4v9.88c0,1,.53,1.5,1.6,1.64l.68.08c.32,0,.48.21.48.56s-.2.52-.6.52l-3.8-.16-4.32.16c-.4,0-.6-.18-.6-.52s.16-.54.48-.56l1.12-.08a2.51,2.51,0,0,0,1.32-.5,1.41,1.41,0,0,0,.52-1.14v-14.64a1.44,1.44,0,0,0-.34-1.1,1.66,1.66,0,0,0-1.1-.3h-1.36a.46.46,0,0,1-.52-.52.54.54,0,0,1,.52-.6l5.2-.64Z"/><path class="cls-3" d="M622.19,1003.73a2.44,2.44,0,0,1,1.74.72,2.42,2.42,0,0,1,0,3.48,2.44,2.44,0,0,1-1.74.72,2.32,2.32,0,0,1-1.72-.74,2.44,2.44,0,0,1-.72-1.74,2.46,2.46,0,0,1,2.44-2.44Zm0,16a2.44,2.44,0,0,1,1.74.72,2.42,2.42,0,0,1,0,3.48,2.44,2.44,0,0,1-1.74.72,2.46,2.46,0,0,1-2.44-2.44,2.4,2.4,0,0,1,.72-1.74A2.29,2.29,0,0,1,622.19,1019.69Z"/><path class="cls-3" d="M653.71,1024.17h-15c-.32,0-.48-.15-.48-.44v-.36a1.2,1.2,0,0,1,.2-.68c1.2-1.87,2.66-4,4.4-6.42s3-4.26,3.92-5.52a27.25,27.25,0,0,0,2.36-4.2,10.86,10.86,0,0,0,1-4.44,5,5,0,0,0-1.22-3.48,4.25,4.25,0,0,0-3.32-1.34,4.16,4.16,0,0,0-3.28,1.32,7.81,7.81,0,0,0-1.7,3,.85.85,0,0,1-.84.72.64.64,0,0,1-.48-.22.71.71,0,0,1-.2-.5v-3.16c0-.59.69-1.2,2.08-1.82a11.27,11.27,0,0,1,4.72-.94,8.41,8.41,0,0,1,5.82,1.92,6.37,6.37,0,0,1,2.14,5,9.16,9.16,0,0,1-1,3.94,18.08,18.08,0,0,1-2.22,3.58c-.84,1-2.16,2.63-3.94,4.78s-3.34,4.1-4.64,5.86H652c.9,0,1.47-.21,1.7-.62s.47-.62.74-.62.57.25.52.76l-.2,2.6a1.51,1.51,0,0,1-.36.94A1,1,0,0,1,653.71,1024.17Z"/><path class="cls-3" d="M662.13,1020.59q-2.7-4-2.7-10.42t2.7-10.42a9.38,9.38,0,0,1,15.4,0q2.7,4,2.7,10.42t-2.7,10.42a9.38,9.38,0,0,1-15.4,0Zm7.7-23.14q-6.65,0-6.64,12.72t6.64,12.72q6.63,0,6.64-12.72T669.83,997.45Z"/><path class="cls-3" d="M685,1005.61c-.48,0-.72-.23-.72-.68a.64.64,0,0,1,.28-.56,4.9,4.9,0,0,0,2.2-3.64,2.66,2.66,0,0,1-1.84-.78,2.57,2.57,0,0,1,.08-3.48,2.33,2.33,0,0,1,1.76-.74,2.36,2.36,0,0,1,1.8.84,3.81,3.81,0,0,1,.76,2.6,6.6,6.6,0,0,1-1.2,3.6,8.31,8.31,0,0,1-2.56,2.64A1.15,1.15,0,0,1,685,1005.61Z"/><path class="cls-3" d="M423.31,1051a1,1,0,0,1-.18.54.54.54,0,0,1-.46.26c-.45,0-.75-.27-.88-.8a7.6,7.6,0,0,0-2.68-4.2,7.31,7.31,0,0,0-4.64-1.52,9.62,9.62,0,0,0-7.7,3.32,12.51,12.51,0,0,0-2.86,8.48,15,15,0,0,0,3,9.2,9.1,9.1,0,0,0,7.54,4,11.6,11.6,0,0,0,3.9-.5c.87-.34,1.45-.58,1.76-.72a10.39,10.39,0,0,0,1.18-.7c.48-.32.75-.5.8-.52.48-.3.81-.34,1-.14a.85.85,0,0,1,.28.58.94.94,0,0,1-.32.6,10.41,10.41,0,0,1-2.8,2.28,12.93,12.93,0,0,1-6.2,1.4,13.29,13.29,0,0,1-10.12-4.12,14.51,14.51,0,0,1-3.88-10.36,14.21,14.21,0,0,1,4-10.32,13.89,13.89,0,0,1,10.44-4.08,18.91,18.91,0,0,1,6.1.92c1.83.61,2.74,1.21,2.74,1.8Z"/><path class="cls-3" d="M437.57,1051.73a9.64,9.64,0,0,1,7.32,2.88,11.86,11.86,0,0,1,0,15.14,10.95,10.95,0,0,1-14.78,0,11.65,11.65,0,0,1,.06-15.08A9.75,9.75,0,0,1,437.57,1051.73Zm5.26,4.88a5.57,5.57,0,0,0-2-2.42,5.7,5.7,0,0,0-3.26-.9,5.78,5.78,0,0,0-5,2.2,9.39,9.39,0,0,0-1.64,5.76,15.8,15.8,0,0,0,1.28,6.52,5.7,5.7,0,0,0,2,2.38,5.55,5.55,0,0,0,3.18.9,5.83,5.83,0,0,0,5-2.2,9.65,9.65,0,0,0,1.62-5.84A15.42,15.42,0,0,0,442.83,1056.61Z"/><path class="cls-3" d="M456.35,1051.73c.43,0,.64.3.64.92v1.76c0,.13.05.2.14.2a.67.67,0,0,0,.38-.24,7.22,7.22,0,0,1,8.86-1.86,5.5,5.5,0,0,1,2.22,2.58q.12.24.24.24c.08,0,.17-.1.28-.28a7.33,7.33,0,0,1,6.12-3.32,6.12,6.12,0,0,1,4.8,1.92,8.1,8.1,0,0,1,1.72,5.56v10.32a1.33,1.33,0,0,0,.58,1.14,2.79,2.79,0,0,0,1.38.5l1.08.08c.32,0,.48.21.48.56s-.2.52-.6.52l-4.28-.16-3.64.16c-.4,0-.6-.18-.6-.52s.16-.54.48-.56l.52-.08a1.54,1.54,0,0,0,1.48-1.64v-10.88c0-3.34-1.43-5-4.28-5a4.3,4.3,0,0,0-3.48,1.94,6.48,6.48,0,0,0-1.48,4v9.88a1.5,1.5,0,0,0,1.4,1.72l.68.08c.29,0,.44.21.44.56a.46.46,0,0,1-.52.52l-3.52-.16-3.52.16c-.4,0-.6-.17-.6-.5a.52.52,0,0,1,.48-.58l.6-.08a1.49,1.49,0,0,0,1.44-1.64v-10.88c0-3.34-1.41-5-4.24-5a4.47,4.47,0,0,0-3.48,1.88,6.21,6.21,0,0,0-1.56,4v10c0,1,.53,1.5,1.6,1.64l.68.08c.32,0,.48.21.48.56s-.2.52-.6.52l-3.8-.16-4.32.16c-.4,0-.6-.18-.6-.52s.16-.54.48-.56l1.12-.08a2.51,2.51,0,0,0,1.32-.5,1.38,1.38,0,0,0,.52-1.14v-14.64a1.44,1.44,0,0,0-.34-1.1,1.64,1.64,0,0,0-1.1-.3h-1.36a.46.46,0,0,1-.52-.52.54.54,0,0,1,.52-.6l5.2-.64Z"/><path class="cls-3" d="M492,1051.73c.42,0,.64.3.64.92v.76c0,.32.11.38.34.2a8,8,0,0,1,.94-.66,8.6,8.6,0,0,1,1.84-.8,7.75,7.75,0,0,1,2.52-.42,10,10,0,0,1,7.46,2.82,11.51,11.51,0,0,1-.14,15.16,9.74,9.74,0,0,1-7.12,2.9,8.77,8.77,0,0,1-5.36-1.68c-.14-.11-.25-.12-.34,0a.48.48,0,0,0-.14.4v10.24c0,1,.53,1.5,1.6,1.64l.68.08c.32,0,.48.21.48.56s-.2.52-.6.52l-3.8-.16-4.32.16c-.4,0-.6-.18-.6-.52s.16-.54.48-.56l1.12-.08a2.51,2.51,0,0,0,1.32-.5,1.41,1.41,0,0,0,.52-1.14v-26.64a1.44,1.44,0,0,0-.34-1.1,1.66,1.66,0,0,0-1.1-.3h-1.36a.46.46,0,0,1-.52-.52.54.54,0,0,1,.52-.6l5.2-.64Zm13,11.72q0-4.8-1.92-7.44a5.74,5.74,0,0,0-4.78-2.64,5.52,5.52,0,0,0-4.28,1.54,4.73,4.73,0,0,0-1.42,3.26v8a4.34,4.34,0,0,0,1.7,3.38,5.62,5.62,0,0,0,3.74,1.46,6.66,6.66,0,0,0,5.08-2A7.88,7.88,0,0,0,505,1063.45Z"/><path class="cls-3" d="M522.69,1051.73a9.64,9.64,0,0,1,7.32,2.88,11.86,11.86,0,0,1,0,15.14,10.95,10.95,0,0,1-14.78,0,11.65,11.65,0,0,1,.06-15.08A9.72,9.72,0,0,1,522.69,1051.73Zm5.26,4.88a5.64,5.64,0,0,0-2-2.42,6.56,6.56,0,0,0-8.22,1.3,9.33,9.33,0,0,0-1.64,5.76,15.64,15.64,0,0,0,1.28,6.52,5.63,5.63,0,0,0,2,2.38,5.55,5.55,0,0,0,3.18.9,5.85,5.85,0,0,0,5-2.2,9.65,9.65,0,0,0,1.62-5.84A15.58,15.58,0,0,0,528,1056.61Z"/><path class="cls-3" d="M550.63,1067a4.88,4.88,0,0,1-2,4.06,7.93,7.93,0,0,1-4.92,1.54,14.67,14.67,0,0,1-4.82-.68c-1.28-.46-1.92-1-1.92-1.52v-3.48q0-.72.54-.72c.36,0,.6.24.74.72.82,2.74,2.56,4.12,5.2,4.12a4.7,4.7,0,0,0,3-.9,2.77,2.77,0,0,0,1.16-2.26,3,3,0,0,0-1.08-2.34,10.39,10.39,0,0,0-2.62-1.7c-1-.48-2.06-1-3.08-1.52a8.74,8.74,0,0,1-2.62-2.06,4.33,4.33,0,0,1-1.08-2.9,5,5,0,0,1,1.88-4,7.43,7.43,0,0,1,5-1.6,10,10,0,0,1,3.8.7c1.14.46,1.72,1,1.72,1.5V1057c0,.48-.19.72-.56.72s-.62-.24-.72-.72q-1.08-3.72-4.52-3.72a4.39,4.39,0,0,0-2.64.78,2.44,2.44,0,0,0-1.08,2.08,3,3,0,0,0,1.1,2.3,10.88,10.88,0,0,0,2.68,1.74c1,.49,2.1,1,3.14,1.56a8.44,8.44,0,0,1,2.66,2.16A4.74,4.74,0,0,1,550.63,1067Z"/><path class="cls-3" d="M572.31,1059.53q0,2.4-2.16,2.4H558.63c-.32,0-.48.22-.48.68a8.28,8.28,0,0,0,2.14,5.82,7,7,0,0,0,5.24,2.14,7.42,7.42,0,0,0,4.7-1.24.65.65,0,0,1,1,0c.29.29.25.62-.12,1a8.35,8.35,0,0,1-6.16,2.24,10.32,10.32,0,0,1-7.7-2.82c-1.86-1.88-2.78-4.5-2.78-7.86a10.33,10.33,0,0,1,2.76-7.14,8.57,8.57,0,0,1,6.58-3.06A8.67,8.67,0,0,1,570,1054,7.35,7.35,0,0,1,572.31,1059.53Zm-3.6-.52a6.41,6.41,0,0,0-1.3-4.06,4.36,4.36,0,0,0-3.64-1.66,5,5,0,0,0-4,1.92,6.54,6.54,0,0,0-1.64,4.4c0,.42.17.64.52.64h8.8A1.1,1.1,0,0,0,568.71,1059Z"/><path class="cls-3" d="M594.83,1040.17c.34,0,.52.28.52.84v27.6a2.82,2.82,0,0,0,.78,2,2.31,2.31,0,0,0,1.66.8c.58,0,.88.17.88.52s-.52.64-1.56.64a5,5,0,0,1-4.12-1.88c-.16-.22-.29-.32-.38-.32a3.32,3.32,0,0,0-1,.56,11.39,11.39,0,0,1-2.24,1.1,8.56,8.56,0,0,1-3.06.54,9.84,9.84,0,0,1-7.5-2.88,10.16,10.16,0,0,1-2.74-7.3,10.45,10.45,0,0,1,3-7.56,9.64,9.64,0,0,1,7.2-3.14,8.21,8.21,0,0,1,5.32,1.84.56.56,0,0,0,.36.12c.13,0,.2-.18.2-.52v-9.8a1.44,1.44,0,0,0-.34-1.1,1.66,1.66,0,0,0-1.1-.3h-1.36a.45.45,0,0,1-.36-.18.56.56,0,0,1-.16-.38c0-.38.17-.58.52-.6l5.28-.64Zm-2.6,26.6v-8.84a3.77,3.77,0,0,0-1.68-3.08,6.49,6.49,0,0,0-4.08-1.28,6.39,6.39,0,0,0-5,2,8,8,0,0,0-1.8,5.5,12,12,0,0,0,1.94,7.26,6,6,0,0,0,5,2.62,6.54,6.54,0,0,0,3.92-1.28A3.64,3.64,0,0,0,592.23,1066.77Z"/><path class="cls-3" d="M625.31,1072.17h-15c-.32,0-.48-.15-.48-.44v-.36a1.2,1.2,0,0,1,.2-.68c1.2-1.87,2.66-4,4.4-6.42s3-4.26,3.92-5.52a27.25,27.25,0,0,0,2.36-4.2,10.86,10.86,0,0,0,1-4.44,5,5,0,0,0-1.22-3.48,4.25,4.25,0,0,0-3.32-1.34,4.16,4.16,0,0,0-3.28,1.32,7.81,7.81,0,0,0-1.7,3,.85.85,0,0,1-.84.72.64.64,0,0,1-.48-.22.71.71,0,0,1-.2-.5v-3.16c0-.59.69-1.2,2.08-1.82a11.27,11.27,0,0,1,4.72-.94,8.41,8.41,0,0,1,5.82,1.92,6.37,6.37,0,0,1,2.14,5,9.16,9.16,0,0,1-1,3.94,18.08,18.08,0,0,1-2.22,3.58c-.84,1-2.16,2.63-3.94,4.78s-3.34,4.1-4.64,5.86h9.88c.9,0,1.47-.21,1.7-.62s.47-.62.74-.62.57.25.52.76l-.2,2.6a1.51,1.51,0,0,1-.36.94A1,1,0,0,1,625.31,1072.17Z"/><path class="cls-3" d="M633.73,1068.59q-2.7-4-2.7-10.42t2.7-10.42a9.37,9.37,0,0,1,15.39,0q2.71,4,2.71,10.42t-2.71,10.42a9.37,9.37,0,0,1-15.39,0Zm7.7-23.14q-6.64,0-6.64,12.72t6.64,12.72q6.63,0,6.64-12.72T641.43,1045.45Z"/><path class="cls-3" d="M670.87,1072.17h-15c-.33,0-.49-.15-.49-.44v-.36a1.28,1.28,0,0,1,.2-.68c1.21-1.87,2.67-4,4.41-6.42s3-4.26,3.92-5.52a27.25,27.25,0,0,0,2.36-4.2,10.84,10.84,0,0,0,1-4.44,4.93,4.93,0,0,0-1.22-3.48,4.22,4.22,0,0,0-3.31-1.34,4.16,4.16,0,0,0-3.28,1.32,7.81,7.81,0,0,0-1.7,3,.85.85,0,0,1-.84.72.68.68,0,0,1-.49-.22.75.75,0,0,1-.19-.5v-3.16c0-.59.69-1.2,2.07-1.82a11.32,11.32,0,0,1,4.73-.94,8.36,8.36,0,0,1,5.81,1.92,6.35,6.35,0,0,1,2.15,5,9.16,9.16,0,0,1-1,3.94,18.11,18.11,0,0,1-2.23,3.58q-1.26,1.56-3.93,4.78c-1.79,2.14-3.34,4.1-4.64,5.86h9.88c.9,0,1.47-.21,1.69-.62s.48-.62.74-.62.58.25.53.76l-.2,2.6a1.46,1.46,0,0,1-.37.94A1,1,0,0,1,670.87,1072.17Z"/><path class="cls-3" d="M689.27,1071.73a.58.58,0,0,1-.18.42.54.54,0,0,1-.38.18l-5.52-.16-5.84.16a.52.52,0,0,1-.6-.58c0-.39.17-.58.52-.58l2.12-.08a3.51,3.51,0,0,0,1.44-.48,1.31,1.31,0,0,0,.64-1.16v-22.2c0-1-.55-1.56-1.64-1.56h-.16l-2.64.12c-.3,0-.44-.18-.44-.52a.56.56,0,0,1,.56-.6l7.12-1c.4,0,.6.14.6.44v25.28c0,1,.6,1.53,1.8,1.64l2.12.08C689.11,1071.17,689.27,1071.35,689.27,1071.73Z"/><path class="cls-3" d="M479.75,1095.87a13.08,13.08,0,0,1,3.8,9.82,14.44,14.44,0,0,1-3.94,10.3,13.25,13.25,0,0,1-10.06,4.18h-6.88l-5,.2a.49.49,0,0,1-.56-.54c0-.36.15-.54.44-.54l1.16-.08a2.51,2.51,0,0,0,1.32-.5,1.38,1.38,0,0,0,.52-1.14v-22.76c0-1-.61-1.5-1.84-1.6l-1.16-.12a.49.49,0,0,1-.44-.52.49.49,0,0,1,.56-.56l5,.16h6.88Q476,1092.17,479.75,1095.87Zm-2.32,2.3a8.61,8.61,0,0,0-3.24-3,9.53,9.53,0,0,0-4.68-1.12h-3.6a2.05,2.05,0,0,0-1.42.48,1.77,1.77,0,0,0-.54,1.4v20.6a1.75,1.75,0,0,0,.54,1.34,2,2,0,0,0,1.42.5h3.8a9.3,9.3,0,0,0,7.36-3.16,12,12,0,0,0,2.76-8.2A16,16,0,0,0,477.43,1098.17Z"/><path class="cls-3" d="M505.59,1120c0,.42-.48.64-1.44.64a5.4,5.4,0,0,1-4.2-2c-.19-.19-.33-.28-.42-.28a.8.8,0,0,0-.42.24,9.35,9.35,0,0,1-5.84,2,6.14,6.14,0,0,1-4-1.42,4.53,4.53,0,0,1-1.72-3.66,4.73,4.73,0,0,1,2.48-4.32,20.4,20.4,0,0,1,6.88-2l1.52-.28a.5.5,0,0,0,.52-.56v-3.68a3.28,3.28,0,0,0-1.1-2.6,4.28,4.28,0,0,0-2.92-1,5.21,5.21,0,0,0-3.28,1.12,4.92,4.92,0,0,0-1.86,3.12.64.64,0,0,1-.66.6q-.54,0-.54-.6v-3a1.15,1.15,0,0,1,.44-1,9.72,9.72,0,0,1,6.08-1.64q4,0,5.56,1.72a6.22,6.22,0,0,1,1.6,4.44v10.68a2.78,2.78,0,0,0,.82,2.08,2.68,2.68,0,0,0,1.94.8C505.4,1119.45,505.59,1119.62,505.59,1120Zm-6.72-3.72v-5c0-.4-.17-.6-.52-.6h-.12q-7.16.87-7.16,4.4a3.25,3.25,0,0,0,1.08,2.58,3.61,3.61,0,0,0,2.42.94,5.22,5.22,0,0,0,2.36-.52,5.28,5.28,0,0,0,1.48-1C498.71,1116.66,498.87,1116.41,498.87,1116.25Z"/><path class="cls-3" d="M512.71,1088.17c.42,0,.64.3.64.92v28.44c0,1,.53,1.5,1.6,1.64l.68.08c.32,0,.48.21.48.56s-.2.52-.6.52l-3.8-.16-4.32.16c-.4,0-.6-.18-.6-.52s.16-.54.48-.56l1.12-.08a2.51,2.51,0,0,0,1.32-.5,1.41,1.41,0,0,0,.52-1.14v-26.2a1.44,1.44,0,0,0-.34-1.1,1.66,1.66,0,0,0-1.1-.3h-1.36a.46.46,0,0,1-.52-.52.54.54,0,0,1,.52-.6l5.2-.64Z"/><path class="cls-3" d="M524.23,1088.17c.42,0,.64.3.64.92v28.44c0,1,.53,1.5,1.6,1.64l.68.08c.32,0,.48.21.48.56s-.2.52-.6.52l-3.8-.16-4.32.16c-.4,0-.6-.18-.6-.52s.16-.54.48-.56l1.12-.08a2.51,2.51,0,0,0,1.32-.5,1.41,1.41,0,0,0,.52-1.14v-26.2a1.44,1.44,0,0,0-.34-1.1,1.66,1.66,0,0,0-1.1-.3H519a.46.46,0,0,1-.52-.52.54.54,0,0,1,.52-.6l5.2-.64Z"/><path class="cls-3" d="M549.07,1120c0,.42-.48.64-1.44.64a5.38,5.38,0,0,1-4.2-2c-.19-.19-.33-.28-.42-.28a.8.8,0,0,0-.42.24,9.37,9.37,0,0,1-5.84,2,6.12,6.12,0,0,1-4-1.42,4.53,4.53,0,0,1-1.72-3.66,4.71,4.71,0,0,1,2.48-4.32,20.32,20.32,0,0,1,6.88-2l1.52-.28a.51.51,0,0,0,.52-.56v-3.68a3.28,3.28,0,0,0-1.1-2.6,4.3,4.3,0,0,0-2.92-1,5.21,5.21,0,0,0-3.28,1.12,4.92,4.92,0,0,0-1.86,3.12.64.64,0,0,1-.66.6q-.54,0-.54-.6v-3a1.13,1.13,0,0,1,.44-1,9.72,9.72,0,0,1,6.08-1.64q4,0,5.56,1.72a6.27,6.27,0,0,1,1.6,4.44v10.68a2.78,2.78,0,0,0,.82,2.08,2.68,2.68,0,0,0,1.94.8C548.88,1119.45,549.07,1119.62,549.07,1120Zm-6.72-3.72v-5c0-.4-.18-.6-.52-.6h-.12c-4.78.58-7.16,2-7.16,4.4a3.25,3.25,0,0,0,1.08,2.58,3.61,3.61,0,0,0,2.42.94,5.22,5.22,0,0,0,2.36-.52,5.28,5.28,0,0,0,1.48-1C542.19,1116.66,542.35,1116.41,542.35,1116.25Z"/><path class="cls-3" d="M565.35,1115a4.88,4.88,0,0,1-2,4.06,7.93,7.93,0,0,1-4.92,1.54,14.67,14.67,0,0,1-4.82-.68c-1.28-.46-1.92-1-1.92-1.52v-3.48q0-.72.54-.72c.36,0,.6.24.74.72.82,2.74,2.56,4.12,5.2,4.12a4.7,4.7,0,0,0,3-.9,2.77,2.77,0,0,0,1.16-2.26,3,3,0,0,0-1.08-2.34,10.39,10.39,0,0,0-2.62-1.7c-1-.48-2.06-1-3.08-1.52a8.74,8.74,0,0,1-2.62-2.06,4.33,4.33,0,0,1-1.08-2.9,5,5,0,0,1,1.88-4,7.43,7.43,0,0,1,5-1.6,10,10,0,0,1,3.8.7c1.14.46,1.72,1,1.72,1.5V1105c0,.48-.19.72-.56.72s-.62-.24-.72-.72q-1.08-3.72-4.52-3.72a4.39,4.39,0,0,0-2.64.78,2.44,2.44,0,0,0-1.08,2.08,3,3,0,0,0,1.1,2.3,10.88,10.88,0,0,0,2.68,1.74c1,.49,2.1,1,3.14,1.56a8.44,8.44,0,0,1,2.66,2.16A4.74,4.74,0,0,1,565.35,1115Z"/><path class="cls-3" d="M570.27,1125.57c-.48,0-.72-.23-.72-.68a.64.64,0,0,1,.28-.56,4.9,4.9,0,0,0,2.2-3.64,2.66,2.66,0,0,1-1.84-.78,2.57,2.57,0,0,1,.08-3.48,2.33,2.33,0,0,1,1.76-.74,2.36,2.36,0,0,1,1.8.84,3.81,3.81,0,0,1,.76,2.6,6.6,6.6,0,0,1-1.2,3.6,8.31,8.31,0,0,1-2.56,2.64A1.15,1.15,0,0,1,570.27,1125.57Z"/><path class="cls-3" d="M600.31,1095.09v22.44a1.38,1.38,0,0,0,.52,1.14,2.41,2.41,0,0,0,1.28.5l1.16.08c.32,0,.48.17.48.52a.52.52,0,0,1-.18.4.61.61,0,0,1-.38.16l-4.52-.16-5,.16a.59.59,0,0,1-.38-.16.52.52,0,0,1-.18-.4c0-.35.16-.52.48-.52l1.48-.08a2.47,2.47,0,0,0,1.28-.5,1.41,1.41,0,0,0,.52-1.14v-22.44c0-.72-.34-1.08-1-1.08h-3.36a4.27,4.27,0,0,0-3.08,1.06,7,7,0,0,0-1.76,3.14q-.24.6-.66.6a.82.82,0,0,1-.62-.22.57.57,0,0,1-.16-.5l.32-5.16a.77.77,0,0,1,.88-.76h22.16c.56,0,.86.32.92,1l.4,5a.63.63,0,0,1-.16.52.87.87,0,0,1-.62.2q-.42,0-.66-.6a7.66,7.66,0,0,0-1.82-3.16,4.2,4.2,0,0,0-3-1h-3.36C600.64,1094,600.31,1094.37,600.31,1095.09Z"/><path class="cls-3" d="M629.35,1107.53q0,2.4-2.16,2.4H615.67c-.32,0-.48.22-.48.68a8.28,8.28,0,0,0,2.14,5.82,7,7,0,0,0,5.24,2.14,7.42,7.42,0,0,0,4.7-1.24.65.65,0,0,1,1,0c.29.29.25.62-.12,1a8.35,8.35,0,0,1-6.16,2.24,10.32,10.32,0,0,1-7.7-2.82c-1.86-1.88-2.78-4.5-2.78-7.86a10.33,10.33,0,0,1,2.76-7.14,8.57,8.57,0,0,1,6.58-3.06A8.67,8.67,0,0,1,627,1102,7.35,7.35,0,0,1,629.35,1107.53Zm-3.6-.52a6.41,6.41,0,0,0-1.3-4.06,4.36,4.36,0,0,0-3.64-1.66,5,5,0,0,0-4,1.92,6.54,6.54,0,0,0-1.64,4.4c0,.42.17.64.52.64h8.8A1.1,1.1,0,0,0,625.75,1107Z"/><path class="cls-3" d="M640.27,1110.81a.47.47,0,0,0,.12-.34.45.45,0,0,0-.12-.34l-5.36-7.52a3.94,3.94,0,0,0-.9-1,2.31,2.31,0,0,0-1.1-.38l-1.2-.16a.5.5,0,0,1-.44-.56c0-.32.18-.48.56-.48l4.48.16,3.6-.16q.6,0,.6.48a.52.52,0,0,1-.48.56l-.44,0c-.75.05-1.12.37-1.12,1a.82.82,0,0,0,.2.56l3.6,5,.24.12a.34.34,0,0,0,.24-.16l3.92-5a1.11,1.11,0,0,0,.32-.72c0-.46-.47-.74-1.4-.84a.52.52,0,0,1-.48-.56q0-.48.6-.48l3,.16L652,1100c.37,0,.56.16.56.48a.52.52,0,0,1-.48.56l-1.16.16a3.26,3.26,0,0,0-2.08,1.48l-5,6.4a.41.41,0,0,0-.12.3.68.68,0,0,0,.08.34l5.72,8a3.94,3.94,0,0,0,.9,1,2.38,2.38,0,0,0,1.1.38l1.2.16a.5.5,0,0,1,.44.56c0,.32-.19.48-.56.48l-4.48-.16-3.6.16q-.6,0-.6-.48a.51.51,0,0,1,.48-.56l.44,0c.74-.06,1.12-.38,1.12-1a.85.85,0,0,0-.2-.56l-3.92-5.44a.26.26,0,0,0-.48,0l-4.28,5.44a1.06,1.06,0,0,0-.32.72c0,.45.46.73,1.4.84a.51.51,0,0,1,.48.56q0,.48-.6.48l-3-.16-3.24.16c-.38,0-.56-.16-.56-.48a.51.51,0,0,1,.48-.56l1.16-.16a3.34,3.34,0,0,0,2.08-1.48Z"/><path class="cls-3" d="M673.23,1120c0,.42-.48.64-1.44.64a5.38,5.38,0,0,1-4.2-2c-.19-.19-.33-.28-.42-.28a.76.76,0,0,0-.42.24,9.37,9.37,0,0,1-5.84,2,6.12,6.12,0,0,1-4-1.42,4.53,4.53,0,0,1-1.72-3.66,4.71,4.71,0,0,1,2.48-4.32,20.32,20.32,0,0,1,6.88-2l1.52-.28a.51.51,0,0,0,.52-.56v-3.68a3.28,3.28,0,0,0-1.1-2.6,4.3,4.3,0,0,0-2.92-1,5.21,5.21,0,0,0-3.28,1.12,4.92,4.92,0,0,0-1.86,3.12.64.64,0,0,1-.66.6q-.54,0-.54-.6v-3a1.13,1.13,0,0,1,.44-1,9.72,9.72,0,0,1,6.08-1.64q4,0,5.56,1.72a6.27,6.27,0,0,1,1.6,4.44v10.68a2.78,2.78,0,0,0,.82,2.08,2.68,2.68,0,0,0,1.94.8C673,1119.45,673.23,1119.62,673.23,1120Zm-6.72-3.72v-5c0-.4-.18-.6-.52-.6h-.12c-4.78.58-7.16,2-7.16,4.4a3.25,3.25,0,0,0,1.08,2.58,3.61,3.61,0,0,0,2.42.94,5.22,5.22,0,0,0,2.36-.52,5.28,5.28,0,0,0,1.48-1C666.35,1116.66,666.51,1116.41,666.51,1116.25Z"/><path class="cls-3" d="M689.5,1115a4.87,4.87,0,0,1-2,4.06,7.93,7.93,0,0,1-4.92,1.54,14.67,14.67,0,0,1-4.82-.68c-1.29-.46-1.92-1-1.92-1.52v-3.48c0-.48.17-.72.54-.72s.6.24.74.72c.82,2.74,2.56,4.12,5.19,4.12a4.68,4.68,0,0,0,3-.9,2.74,2.74,0,0,0,1.16-2.26,3,3,0,0,0-1.08-2.34,10.21,10.21,0,0,0-2.62-1.7c-1-.48-2.05-1-3.08-1.52a8.82,8.82,0,0,1-2.61-2.06,4.28,4.28,0,0,1-1.08-2.9,5,5,0,0,1,1.88-4,7.43,7.43,0,0,1,5-1.6,9.88,9.88,0,0,1,3.79.7c1.15.46,1.72,1,1.72,1.5V1105c0,.48-.18.72-.55.72s-.62-.24-.72-.72c-.73-2.48-2.23-3.72-4.53-3.72a4.34,4.34,0,0,0-2.63.78,2.41,2.41,0,0,0-1.08,2.08,3,3,0,0,0,1.09,2.3,11.14,11.14,0,0,0,2.69,1.74c1,.49,2.1,1,3.14,1.56a8.44,8.44,0,0,1,2.66,2.16A4.73,4.73,0,0,1,689.5,1115Z"/></g></svg>